<?xml version="1.0" encoding="UTF-8" ?>
<!DOCTYPE svg PUBLIC "-//W3C//DTD SVG 1.1//EN" "http://www.w3.org/Graphics/SVG/1.1/DTD/svg11.dtd">
<svg width="793pt" height="632pt" viewBox="0 0 793 632" version="1.1" xmlns="http://www.w3.org/2000/svg">
<g id="#ffffffff">
<path fill="#ffffff" opacity="1.00" d=" M 14.11 220.39 C 16.33 220.05 18.56 219.79 20.80 219.66 C 20.60 223.24 19.51 226.93 20.61 230.47 C 22.01 230.74 23.44 230.70 24.86 230.69 C 26.07 227.49 25.24 224.04 25.14 220.74 C 27.20 220.74 29.26 220.75 31.32 220.77 C 30.65 224.05 30.46 227.46 31.33 230.73 C 32.68 230.67 34.04 230.63 35.38 230.40 C 36.38 227.16 35.86 223.69 35.10 220.47 C 37.31 220.21 39.50 219.84 41.72 219.64 C 41.71 223.21 40.71 226.89 41.90 230.37 C 42.58 232.39 41.48 234.45 41.48 236.50 C 46.97 236.96 52.49 236.67 58.00 236.75 C 79.47 236.62 100.95 237.03 122.41 236.54 C 122.38 234.59 122.34 232.64 122.38 230.69 C 135.23 230.80 148.08 230.76 160.94 230.71 C 160.58 233.48 159.53 236.14 159.66 238.96 C 159.77 253.52 159.53 268.09 159.74 282.65 C 157.12 283.28 154.17 283.24 152.01 285.07 C 146.73 290.12 141.05 294.73 135.67 299.67 C 126.54 308.36 114.80 313.38 104.62 320.63 C 100.60 323.55 97.03 327.11 92.57 329.38 C 85.34 333.34 78.02 337.28 71.76 342.72 C 68.68 345.43 65.02 347.86 63.26 351.71 C 46.17 351.92 29.08 351.71 11.99 351.81 C 10.23 352.09 8.61 352.88 6.90 353.33 C 4.89 353.72 3.15 352.40 1.41 351.65 C 0.68 341.17 3.39 330.80 5.45 320.59 C 5.83 308.40 5.12 296.16 6.26 284.00 C 6.59 279.64 5.65 275.34 5.73 270.99 C 6.69 261.69 6.07 252.31 6.27 242.97 C 6.46 239.43 5.14 236.09 4.40 232.69 C 4.05 228.89 4.33 225.07 4.25 221.27 C 6.40 221.26 8.55 221.25 10.69 221.14 C 9.42 223.98 9.27 227.17 9.88 230.20 C 11.34 230.51 13.58 231.36 14.67 229.94 C 15.12 226.75 14.85 223.51 14.11 220.39 Z" />
</g>
</svg>
