<?xml version="1.0" encoding="UTF-8" ?>
<!DOCTYPE svg PUBLIC "-//W3C//DTD SVG 1.1//EN" "http://www.w3.org/Graphics/SVG/1.1/DTD/svg11.dtd">
<svg width="793pt" height="632pt" viewBox="0 0 793 632" version="1.1" xmlns="http://www.w3.org/2000/svg">
<g id="#ffffffff">
<path fill="#ffffff" opacity="1.00" d=" M 145.16 68.00 C 145.82 65.16 144.00 61.33 146.70 59.32 C 146.97 62.63 146.23 66.38 148.57 69.13 C 149.37 78.55 147.85 88.17 149.36 97.51 C 152.26 104.39 149.34 112.04 151.77 119.00 C 154.02 125.21 151.56 132.00 153.54 138.26 C 154.97 142.79 155.16 147.60 156.57 152.14 C 157.05 161.08 156.52 170.07 156.82 179.02 C 157.56 185.10 161.42 190.10 163.83 195.59 C 169.61 205.93 172.62 217.50 175.17 228.98 C 175.48 233.34 174.98 237.72 175.41 242.08 C 176.63 244.94 179.55 247.17 179.46 250.51 C 179.29 253.65 179.69 257.66 176.67 259.62 C 173.09 262.42 169.98 265.91 165.79 267.84 C 161.22 269.93 158.99 275.21 159.72 280.04 C 144.14 279.96 128.55 280.00 112.96 280.02 C 113.13 276.59 112.36 272.63 114.94 269.88 C 119.57 262.73 114.42 254.36 115.20 246.66 C 116.64 244.47 118.63 242.52 119.16 239.86 C 119.56 235.01 118.82 230.10 119.55 225.27 C 120.57 221.53 122.29 217.99 122.96 214.15 C 125.01 203.12 131.61 193.79 136.07 183.69 C 136.62 182.18 136.93 180.60 137.18 179.02 C 137.48 170.07 136.95 161.08 137.43 152.14 C 138.84 147.60 139.03 142.79 140.46 138.26 C 141.89 133.62 141.00 128.71 141.26 123.95 C 141.28 120.21 143.47 116.84 143.27 113.07 C 143.48 108.48 142.57 103.70 144.21 99.28 C 145.44 94.62 144.20 89.72 145.07 85.00 C 145.97 79.33 143.99 73.66 145.16 68.00 Z" />
</g>
</svg>
