<?xml version="1.0" encoding="UTF-8" ?>
<!DOCTYPE svg PUBLIC "-//W3C//DTD SVG 1.1//EN" "http://www.w3.org/Graphics/SVG/1.1/DTD/svg11.dtd">
<svg width="793pt" height="632pt" viewBox="0 0 793 632" version="1.1" xmlns="http://www.w3.org/2000/svg">
<g id="#ffffffff">
<path fill="#ffffff" opacity="1.00" d=" M 395.97 2.50 C 397.95 1.42 398.47 5.54 396.61 5.71 C 395.13 5.57 395.11 3.33 395.97 2.50 Z" />
<path fill="#ffffff" opacity="1.00" d=" M 448.49 9.80 C 453.97 7.05 460.11 8.43 465.74 9.80 C 463.61 12.76 463.29 16.37 463.94 19.87 C 466.22 20.19 468.56 20.20 470.81 20.79 C 469.73 22.41 468.47 23.87 467.39 25.48 C 467.23 33.56 467.24 41.65 467.48 49.73 C 468.96 50.10 470.47 50.36 471.99 50.63 C 471.09 52.02 470.20 53.41 469.42 54.85 C 470.10 56.19 470.79 57.53 471.47 58.88 C 470.82 60.57 469.95 62.21 469.68 64.01 C 469.87 88.38 469.69 112.76 469.70 137.13 C 471.39 137.76 473.07 138.63 474.95 138.51 C 480.93 138.54 486.91 138.46 492.90 138.50 C 494.93 138.33 496.51 139.82 498.23 140.68 C 500.84 137.62 505.45 138.38 508.14 135.32 C 511.61 136.77 515.97 137.12 517.75 140.94 C 519.16 140.14 520.52 139.19 522.03 138.53 C 528.61 138.39 535.20 138.60 541.79 138.48 C 543.47 138.32 545.39 137.88 546.59 136.62 C 551.33 128.94 553.78 119.78 560.03 113.08 C 562.63 116.44 564.79 120.32 565.65 124.51 C 566.89 124.86 568.13 125.24 569.38 125.59 C 573.09 121.87 576.75 116.31 574.56 110.92 C 583.27 102.93 586.73 91.22 592.15 81.10 C 594.71 78.12 596.71 74.63 599.86 72.20 C 605.04 80.19 610.75 87.82 616.86 95.13 C 619.96 99.89 623.56 104.47 628.40 107.59 C 629.45 108.44 631.27 109.03 630.86 110.74 C 629.38 112.42 626.33 113.27 626.55 115.94 C 626.47 123.44 626.58 130.95 626.50 138.46 C 628.30 138.50 630.10 138.52 631.91 138.62 C 630.80 140.40 629.32 141.98 628.54 143.95 C 628.43 148.31 628.51 152.67 628.50 157.02 C 628.24 158.87 629.69 160.10 630.60 161.50 C 630.40 165.47 630.62 169.43 630.42 173.39 C 629.55 172.06 628.91 170.59 628.26 169.15 C 624.58 168.66 622.41 172.74 622.57 175.94 C 622.62 183.70 622.51 191.46 622.65 199.22 C 625.75 199.52 629.28 199.01 631.96 200.97 C 633.15 202.31 633.09 204.28 633.19 205.98 C 633.59 218.37 634.05 230.83 633.19 243.21 C 631.39 243.54 629.51 244.12 627.73 243.43 C 626.47 242.01 626.34 240.10 626.05 238.33 C 618.85 234.61 612.76 229.00 605.24 225.88 C 597.70 222.88 591.91 217.00 585.00 212.95 C 583.60 211.61 583.84 209.41 583.55 207.64 C 581.06 207.86 579.15 206.30 578.01 204.23 C 575.62 204.61 572.58 205.40 570.87 203.12 C 568.65 201.07 569.54 197.82 569.17 195.16 C 566.20 192.21 561.49 194.43 557.97 192.50 C 542.89 192.71 527.81 192.52 512.73 192.61 C 512.67 189.19 512.62 185.51 510.22 182.79 C 506.15 177.88 501.86 172.92 496.23 169.75 C 487.84 164.77 480.40 158.34 471.67 153.91 C 470.83 154.55 469.99 155.21 469.18 155.89 C 463.40 151.95 456.67 149.82 450.73 146.17 C 447.92 144.52 444.89 143.31 442.02 141.77 C 440.23 141.03 439.75 138.82 437.95 138.08 C 433.22 135.63 429.05 132.30 424.61 129.40 C 419.07 125.61 414.49 119.94 407.89 118.03 C 397.95 117.48 387.96 117.99 378.00 117.80 C 374.31 117.48 370.68 119.05 367.03 118.13 C 363.08 117.54 359.07 117.89 355.10 117.92 C 355.31 115.03 355.38 112.13 355.20 109.23 C 356.58 108.27 358.65 107.15 358.24 105.12 C 357.18 97.11 358.50 88.98 357.31 80.98 C 356.74 75.57 357.69 70.19 359.74 65.17 L 361.44 64.64 C 361.20 68.40 362.10 72.05 362.63 75.74 C 363.08 75.66 363.97 75.50 364.42 75.42 C 366.86 64.17 366.32 52.43 365.42 41.07 C 366.99 36.04 367.61 30.79 367.66 25.53 C 368.62 26.23 369.66 26.81 370.72 27.37 C 370.37 30.33 370.65 33.35 372.27 35.93 C 374.06 35.33 375.74 34.11 375.24 31.97 C 374.77 28.52 377.31 25.95 378.58 23.00 C 378.84 21.04 378.75 19.05 378.79 17.08 C 379.15 17.26 379.86 17.62 380.22 17.80 C 380.22 20.87 380.23 23.97 382.00 26.64 C 383.56 25.54 385.61 24.29 385.26 22.05 C 385.74 20.01 384.36 14.99 388.03 16.40 C 388.08 19.39 388.17 22.39 388.92 25.31 C 390.33 25.28 391.75 25.24 393.17 25.20 C 393.39 20.89 393.05 16.41 394.54 12.30 C 395.97 12.35 397.41 12.39 398.85 12.42 C 397.06 16.54 400.42 19.87 400.43 23.86 C 400.08 25.32 402.91 26.30 403.24 24.56 C 404.50 21.75 404.91 18.69 404.80 15.64 C 405.28 15.45 406.24 15.07 406.72 14.88 C 406.86 18.79 407.11 22.81 408.96 26.35 C 409.89 26.49 411.75 26.77 412.67 26.91 C 412.75 24.44 412.76 21.98 412.72 19.51 C 413.22 19.43 414.22 19.27 414.72 19.18 C 414.72 20.77 414.72 22.35 414.73 23.94 C 415.76 24.99 416.80 26.04 417.83 27.11 C 417.85 30.20 416.75 33.65 418.94 36.27 C 422.01 33.53 421.63 29.41 421.58 25.69 C 422.56 25.63 423.56 25.56 424.55 25.49 C 424.72 30.47 426.25 35.22 427.51 39.99 C 425.36 50.18 426.41 60.70 426.85 71.02 C 426.74 72.98 427.71 74.66 429.08 75.96 C 430.66 70.81 431.56 65.49 433.04 60.31 C 434.05 63.29 434.51 66.39 434.59 69.52 C 435.60 73.38 436.37 77.51 435.15 81.42 C 433.86 84.98 434.33 88.80 434.42 92.50 C 436.26 93.82 438.77 95.29 438.27 97.98 C 438.81 102.20 437.51 107.61 441.20 110.63 C 441.48 94.06 441.19 77.49 441.33 60.92 C 441.40 57.49 442.98 54.26 442.61 50.81 C 447.24 46.60 443.96 40.24 445.22 35.00 C 444.42 30.53 445.09 26.08 445.31 21.60 C 446.30 21.44 447.30 21.27 448.31 21.11 C 448.72 17.35 448.31 13.57 448.49 9.80 M 615.42 170.43 C 614.78 171.90 613.96 173.34 613.74 174.96 C 613.52 182.83 613.96 190.72 613.52 198.59 C 615.54 198.73 617.57 198.85 619.60 198.92 C 619.63 191.01 619.65 183.09 619.61 175.19 C 619.70 173.38 618.55 171.90 617.74 170.39 C 617.16 170.40 616.00 170.42 615.42 170.43 M 606.51 172.55 C 605.53 174.53 604.73 176.67 604.88 178.93 C 604.97 185.18 604.66 191.44 605.13 197.68 C 607.00 197.91 608.87 198.17 610.76 198.37 C 610.69 190.96 610.80 183.55 610.73 176.14 C 610.82 174.51 609.99 173.12 609.01 171.91 C 608.38 172.07 607.13 172.39 606.51 172.55 M 598.67 173.25 C 596.55 180.29 597.78 187.77 597.62 195.00 C 597.43 197.91 600.95 197.23 602.82 197.52 C 602.57 189.53 603.49 181.44 602.26 173.52 C 601.05 173.40 599.86 173.31 598.67 173.25 M 592.46 174.45 C 591.89 181.77 592.21 189.13 592.29 196.47 C 593.50 196.55 594.72 196.64 595.94 196.74 C 595.71 189.29 596.29 181.82 595.57 174.40 C 594.53 174.41 593.49 174.43 592.46 174.45 Z" />
<path fill="#ffffff" opacity="1.00" d=" M 145.15 65.99 C 145.71 63.87 144.17 60.61 146.75 59.56 C 146.89 61.98 146.62 64.44 147.21 66.82 C 147.73 68.31 149.53 69.24 149.25 71.00 C 149.29 79.35 149.20 87.70 149.26 96.05 C 149.28 98.84 150.63 101.36 151.11 104.06 C 151.81 109.67 150.25 115.56 152.30 120.98 C 154.22 126.42 152.66 132.27 153.44 137.87 C 155.05 143.18 155.39 148.76 157.09 154.06 C 157.53 163.02 157.04 172.02 157.31 180.99 C 157.35 182.16 157.63 183.27 158.17 184.31 C 161.32 190.51 164.51 196.69 167.53 202.95 C 170.76 211.10 173.05 219.56 175.08 228.07 C 175.58 232.73 174.95 237.43 175.38 242.10 C 176.31 244.02 178.38 245.21 179.32 247.06 C 179.23 251.24 180.60 256.77 176.65 259.62 C 172.79 262.84 169.18 266.43 164.56 268.56 C 159.47 271.37 159.91 277.65 159.67 282.63 C 156.64 283.26 153.20 283.51 150.99 285.97 C 147.28 289.98 142.64 292.93 138.89 296.89 C 133.48 301.51 128.26 306.48 121.89 309.79 C 114.77 314.35 107.18 318.27 100.66 323.72 C 93.34 330.12 83.89 333.27 76.23 339.19 C 71.45 343.02 66.21 346.61 62.84 351.84 C 46.21 351.72 29.57 351.84 12.94 351.77 C 10.81 351.72 8.90 352.85 6.87 353.33 C 4.87 353.71 3.15 352.38 1.40 351.65 C 0.68 341.17 3.39 330.80 5.45 320.60 C 5.81 308.07 5.15 295.49 6.27 283.00 C 5.65 276.36 5.38 269.64 6.19 263.00 C 6.65 258.65 5.55 254.35 5.72 250.00 C 5.58 245.51 7.15 240.92 5.42 236.56 C 3.52 231.67 4.46 226.37 4.25 221.28 C 6.38 221.25 8.50 221.24 10.63 221.19 C 9.39 224.15 9.21 227.49 10.13 230.57 C 11.62 230.58 13.12 230.59 14.61 230.56 C 15.03 227.13 14.91 223.66 14.16 220.29 C 16.39 219.94 18.64 219.76 20.90 219.74 C 20.34 223.27 19.92 226.85 20.31 230.43 C 21.98 230.70 23.68 230.68 25.36 230.45 C 25.60 227.36 25.46 224.27 25.08 221.20 C 27.20 221.24 29.31 221.25 31.42 221.23 C 30.58 224.32 30.50 227.58 31.30 230.68 C 32.72 230.65 34.13 230.58 35.55 230.50 C 36.08 227.15 35.99 223.72 35.12 220.44 C 37.33 220.21 39.53 219.86 41.74 219.65 C 41.67 223.23 40.73 226.92 41.90 230.43 C 42.54 232.35 41.51 234.32 41.41 236.27 C 43.56 236.78 45.72 237.38 47.95 237.27 C 71.71 237.20 95.46 237.32 119.22 237.21 C 119.50 232.22 118.45 226.96 120.56 222.24 C 121.72 219.23 122.63 216.13 123.24 212.96 C 124.85 205.06 129.11 198.13 132.57 190.97 C 134.62 186.88 137.26 182.80 137.26 178.06 C 137.26 170.35 137.24 162.64 137.24 154.94 C 137.08 151.47 138.80 148.31 139.08 144.88 C 139.28 140.83 141.47 137.14 141.27 133.06 C 141.46 128.38 140.55 123.50 142.30 119.02 C 144.03 114.17 142.94 108.96 143.26 103.94 C 143.20 101.46 144.53 99.23 144.70 96.79 C 144.97 91.87 144.40 86.91 145.02 82.01 C 145.93 76.67 143.97 71.32 145.15 65.99 Z" />
<path fill="#ffffff" opacity="1.00" d=" M 288.77 73.36 C 290.25 73.33 291.74 73.33 293.23 73.36 C 293.16 76.27 293.19 79.24 294.31 81.99 C 295.60 85.39 295.25 89.05 295.24 92.61 C 297.31 93.12 299.45 93.34 301.50 93.95 C 306.13 96.59 310.00 100.50 313.05 104.84 C 314.56 106.64 314.49 109.08 315.07 111.24 C 315.56 113.87 316.76 116.37 316.74 119.09 C 316.85 128.08 316.58 137.07 316.85 146.05 C 317.35 148.72 316.89 151.87 318.95 153.97 C 322.82 158.61 329.50 156.18 334.73 156.72 C 330.68 160.39 326.46 163.87 322.02 167.06 C 315.16 171.28 307.15 173.12 300.28 177.33 C 296.38 179.67 292.46 182.03 288.91 184.89 C 284.58 188.21 281.09 192.47 276.66 195.66 C 270.41 200.80 262.53 203.30 256.02 208.02 C 252.84 210.91 249.38 213.81 247.79 217.94 C 229.77 218.10 211.74 217.92 193.72 218.04 C 193.72 221.51 193.06 225.80 188.96 226.56 C 187.82 225.89 186.59 225.34 185.62 224.43 C 184.23 216.71 184.92 208.80 184.73 201.00 C 184.29 188.26 184.87 175.52 184.79 162.79 C 188.65 162.38 193.82 164.13 196.27 160.14 C 197.22 156.19 196.44 152.01 197.23 148.00 C 196.78 142.24 196.31 136.38 197.62 130.67 C 198.83 129.07 200.31 127.69 201.45 126.03 C 202.47 123.38 202.76 120.53 202.59 117.71 C 203.30 116.87 204.08 116.07 204.61 115.10 C 204.91 111.20 204.71 107.28 204.72 103.38 C 206.01 103.41 207.30 103.45 208.59 103.48 C 208.88 107.46 207.95 111.59 209.58 115.39 C 211.66 120.62 213.77 126.06 217.88 130.07 C 220.43 134.24 218.85 139.41 218.77 144.00 C 219.59 149.61 219.10 155.28 219.32 160.92 C 223.10 161.62 224.96 157.74 228.14 156.80 C 238.53 156.64 248.92 156.84 259.30 156.71 C 261.10 154.89 262.81 152.70 262.68 150.00 C 262.84 140.99 262.72 131.98 262.73 122.97 C 262.46 117.52 265.09 112.52 265.77 107.19 C 267.97 102.30 272.10 98.50 276.32 95.33 C 278.66 93.25 281.91 93.32 284.77 92.55 C 284.75 90.33 284.70 88.10 284.74 85.88 C 284.50 83.00 287.16 81.17 288.54 78.96 C 288.86 77.11 288.74 75.22 288.77 73.36 Z" />
<path fill="#ffffff" opacity="1.00" d=" M 650.68 152.36 C 651.66 152.36 653.62 152.38 654.59 152.39 C 656.07 155.75 655.38 159.42 655.68 162.95 C 657.07 166.07 659.37 168.65 660.99 171.63 C 661.97 174.30 662.26 177.19 662.29 180.03 C 662.25 183.45 664.32 186.50 664.26 189.94 C 664.26 197.87 664.23 205.81 664.26 213.74 C 668.02 213.75 671.78 213.74 675.54 213.77 C 676.89 208.34 678.51 202.93 678.65 197.29 C 680.19 197.79 681.80 197.79 683.35 197.29 C 683.55 202.92 684.94 208.39 686.47 213.78 C 691.72 213.73 696.97 213.73 702.22 213.79 C 702.67 217.20 701.03 221.51 703.85 224.15 C 705.86 226.65 709.43 225.48 712.21 225.81 C 712.40 237.22 712.01 248.66 712.41 260.07 C 713.51 263.42 717.11 264.04 720.21 263.89 C 720.35 272.95 720.12 282.02 720.32 291.08 C 720.29 292.79 722.17 293.65 722.90 295.06 C 723.12 298.97 722.86 302.91 723.26 306.83 C 725.13 305.63 727.25 305.09 729.48 305.13 C 730.63 301.38 729.89 297.42 730.67 293.62 C 732.76 290.39 736.35 288.69 739.69 287.05 C 743.02 285.45 746.20 283.34 749.91 282.73 C 752.52 283.28 755.06 284.25 757.17 285.93 C 760.31 288.28 763.95 289.80 767.28 291.84 C 768.53 295.31 767.40 299.17 768.14 302.76 C 769.46 304.07 771.39 304.50 772.92 305.54 C 776.85 307.46 778.07 312.02 780.91 315.04 C 782.30 315.89 784.10 315.58 785.67 315.97 C 785.68 325.72 785.63 335.49 785.48 345.24 C 787.06 346.75 788.69 348.22 790.26 349.76 C 772.72 349.77 755.18 349.87 737.65 349.73 C 736.33 346.73 733.82 344.45 730.85 343.13 C 725.42 340.56 721.12 336.25 716.06 333.10 C 714.30 331.88 711.96 330.77 711.76 328.36 C 711.24 324.15 711.65 319.89 711.42 315.66 C 712.92 315.54 714.43 315.48 715.92 315.22 C 718.04 313.59 719.65 311.41 721.20 309.26 C 706.21 308.56 691.16 309.38 676.16 308.84 C 673.33 307.06 670.84 304.75 667.84 303.24 C 663.00 300.82 657.85 298.83 653.58 295.42 C 649.14 291.92 646.35 286.71 641.58 283.59 C 641.42 278.00 642.32 272.21 640.36 266.85 C 640.36 265.51 640.41 264.18 640.50 262.85 C 640.83 263.81 641.16 264.80 641.54 265.76 C 641.11 262.13 642.45 258.63 642.27 255.01 C 642.21 233.33 642.29 211.64 642.23 189.95 C 641.89 184.83 644.89 180.19 644.34 175.03 C 643.92 170.17 649.85 167.88 649.67 163.12 C 649.66 159.50 649.87 155.89 650.68 152.36 Z" />
<path fill="#ffffff" opacity="1.00" d=" M 323.56 201.92 C 325.21 197.27 329.67 194.69 333.52 192.07 C 333.44 193.49 333.37 194.91 333.32 196.34 C 329.59 197.29 326.45 199.46 323.56 201.92 Z" />
</g>
</svg>
