<?xml version="1.0" encoding="UTF-8" ?>
<!DOCTYPE svg PUBLIC "-//W3C//DTD SVG 1.1//EN" "http://www.w3.org/Graphics/SVG/1.1/DTD/svg11.dtd">
<svg width="793pt" height="632pt" viewBox="0 0 793 632" version="1.1" xmlns="http://www.w3.org/2000/svg">
<g id="#ffffffff">
<path fill="#ffffff" opacity="1.00" d=" M 395.25 1.21 C 396.42 1.35 397.60 1.48 398.78 1.61 C 398.66 2.06 398.43 2.96 398.32 3.41 L 400.67 4.00 L 398.34 4.57 C 398.44 5.03 398.65 5.94 398.76 6.40 C 397.58 6.52 396.42 6.65 395.25 6.79 C 395.25 4.93 395.25 3.07 395.25 1.21 Z" />
<path fill="#ffffff" opacity="1.00" d=" M 394.82 10.27 C 395.12 11.26 395.70 13.25 396.00 14.25 C 396.25 13.18 396.76 11.05 397.01 9.99 C 397.13 10.63 397.35 11.92 397.46 12.56 C 398.10 12.54 399.37 12.50 400.00 12.48 C 398.52 14.15 398.04 16.16 398.54 18.34 C 399.16 19.13 399.78 19.93 400.40 20.72 C 400.37 22.22 400.38 23.72 400.50 25.22 C 401.36 25.27 402.23 25.32 403.10 25.37 C 403.45 24.02 403.81 22.66 404.17 21.31 C 404.77 21.38 405.96 21.53 406.56 21.60 C 406.62 20.15 406.65 18.69 406.59 17.24 C 406.31 18.41 406.30 19.64 405.88 20.78 C 403.25 20.82 405.17 17.57 405.13 16.05 C 405.38 15.54 405.88 14.52 406.13 14.01 C 407.76 18.38 406.58 23.41 409.72 27.29 C 410.64 27.29 411.58 27.29 412.52 27.31 C 412.57 26.60 412.67 25.20 412.71 24.49 L 413.31 24.49 C 413.17 22.27 413.12 19.99 414.00 17.89 C 414.81 19.87 414.75 22.01 414.75 24.10 C 415.71 24.96 416.68 25.82 417.67 26.66 C 418.21 29.59 416.53 33.18 418.55 35.62 C 422.39 34.90 421.53 29.43 421.38 26.37 L 422.85 26.50 C 422.75 26.07 422.56 25.22 422.46 24.79 C 422.87 24.81 423.69 24.85 424.11 24.88 C 424.49 25.93 424.89 26.98 425.33 28.02 C 425.17 28.52 424.87 29.52 424.72 30.01 C 425.74 33.35 426.75 36.69 427.53 40.09 C 425.61 47.23 426.51 54.63 426.30 61.92 C 426.49 66.35 426.99 70.76 427.63 75.14 C 428.06 75.23 428.92 75.40 429.34 75.49 C 429.67 73.82 430.04 72.16 430.38 70.50 L 431.23 70.44 C 431.30 68.41 431.48 66.39 431.63 64.37 L 432.34 64.53 C 432.41 63.03 432.55 61.54 432.77 60.06 C 433.84 61.17 433.56 62.78 433.80 64.19 C 435.07 65.93 433.95 68.23 434.73 70.14 C 435.87 74.00 436.25 78.21 434.97 82.09 C 433.90 85.35 434.24 88.85 434.48 92.22 C 434.90 93.67 436.75 93.87 437.80 94.75 C 437.73 95.15 437.60 95.94 437.53 96.34 L 438.45 96.56 C 438.38 97.20 438.25 98.47 438.18 99.11 C 438.01 100.08 437.67 102.02 437.50 102.99 C 440.48 102.16 438.92 98.09 439.59 95.75 C 440.06 99.87 438.30 103.87 439.06 107.99 C 439.94 109.03 440.06 111.83 437.52 110.56 C 437.52 111.53 437.53 113.48 437.54 114.45 C 440.71 112.69 439.51 116.45 440.04 117.88 C 411.73 117.82 383.41 117.68 355.09 117.92 C 355.37 114.72 355.37 111.51 355.17 108.31 C 355.68 108.37 356.71 108.51 357.23 108.57 C 357.50 107.95 358.03 106.72 358.29 106.10 C 357.65 101.77 357.59 97.35 358.09 93.00 C 357.79 88.82 358.28 84.64 357.21 80.51 L 356.67 80.50 C 356.67 79.78 356.69 78.34 356.70 77.62 L 357.93 77.19 C 357.55 76.52 356.79 75.17 356.41 74.50 L 357.45 74.46 C 357.47 73.06 357.49 71.65 357.50 70.25 L 358.56 70.73 C 358.56 69.94 358.56 68.35 358.57 67.55 L 359.29 67.49 C 359.34 66.76 359.45 65.30 359.50 64.57 L 360.72 64.87 C 360.82 64.40 361.03 63.46 361.14 62.98 C 361.52 67.32 361.77 71.65 362.69 75.93 L 364.24 75.24 C 366.18 70.47 365.66 65.09 366.11 60.03 C 366.18 53.42 366.21 46.81 365.17 40.25 L 366.36 40.65 C 366.44 38.26 366.67 35.88 366.73 33.49 L 367.34 33.51 C 367.33 31.79 367.36 30.07 367.34 28.35 L 368.95 28.29 L 367.83 26.62 L 370.72 26.67 C 370.38 29.70 370.63 32.74 371.77 35.58 C 373.56 35.83 374.81 35.10 375.28 33.31 C 375.24 31.31 375.36 29.30 375.50 27.31 L 376.96 27.68 L 376.11 26.08 L 377.91 26.60 C 377.69 26.04 377.25 24.91 377.03 24.35 L 378.46 24.75 C 378.71 21.79 378.77 18.82 378.94 15.86 C 380.25 18.01 380.42 20.45 380.40 22.89 C 380.37 24.92 382.31 26.73 384.27 25.43 C 384.62 24.04 384.91 22.63 385.22 21.23 C 385.37 19.20 385.57 17.15 386.25 15.21 C 386.42 14.40 386.78 12.78 386.96 11.97 C 389.04 16.14 386.50 21.41 389.65 25.17 L 391.41 25.65 L 391.60 24.43 L 392.83 24.76 C 392.76 23.18 392.74 21.59 392.76 20.01 C 394.26 17.69 393.47 14.83 393.56 12.24 L 394.80 12.83 C 394.80 12.19 394.82 10.91 394.82 10.27 Z" />
</g>
</svg>
