<?xml version="1.0" encoding="UTF-8" ?>
<!DOCTYPE svg PUBLIC "-//W3C//DTD SVG 1.1//EN" "http://www.w3.org/Graphics/SVG/1.1/DTD/svg11.dtd">
<svg width="793pt" height="632pt" viewBox="0 0 793 632" version="1.1" xmlns="http://www.w3.org/2000/svg">
<g id="#ffffffff">
<path fill="#ffffff" opacity="1.00" d=" M 289.29 73.27 C 290.12 73.26 291.78 73.24 292.61 73.23 C 292.77 75.77 293.19 78.30 293.96 80.73 C 295.32 84.70 294.57 88.95 294.77 93.06 C 297.49 93.37 300.54 93.05 302.81 94.89 C 307.07 98.18 311.22 101.93 313.89 106.65 C 314.92 110.39 315.93 114.20 316.68 118.01 C 316.89 128.01 316.63 138.02 316.79 148.03 C 317.23 150.50 317.67 153.35 319.57 155.17 C 323.89 157.85 329.12 157.17 333.94 157.35 C 330.45 160.79 326.48 163.69 322.60 166.66 C 316.06 170.95 308.28 172.74 301.53 176.61 C 295.12 180.29 288.82 184.31 283.60 189.58 C 278.20 195.06 271.82 199.51 264.89 202.81 C 258.01 206.15 251.00 210.75 247.80 217.97 C 227.85 217.89 207.89 218.27 187.96 217.78 C 186.56 215.37 185.01 212.90 184.79 210.05 C 184.58 194.27 184.25 178.46 185.39 162.71 C 188.25 162.70 191.16 163.02 193.99 162.38 C 198.02 159.72 197.25 154.18 197.20 149.99 C 196.25 143.81 196.90 137.58 197.42 131.39 C 198.10 128.90 201.26 127.76 201.65 125.08 C 202.42 121.82 203.10 118.53 204.37 115.42 C 205.96 111.49 204.97 107.19 205.31 103.09 C 206.07 103.23 207.58 103.50 208.34 103.63 C 209.21 106.35 208.21 109.20 208.68 111.96 C 209.45 116.66 211.98 120.77 213.90 125.06 C 214.95 127.53 217.69 128.91 218.61 131.39 C 219.05 137.91 218.44 144.47 218.90 150.99 C 219.46 154.50 219.12 158.06 219.47 161.58 C 222.44 161.10 224.69 159.19 226.94 157.37 C 236.62 157.07 246.32 157.35 256.01 157.25 C 258.57 157.35 260.81 155.62 262.15 153.56 C 264.24 143.85 262.86 133.84 263.24 124.00 C 262.65 118.02 264.63 112.31 266.11 106.63 C 268.79 101.93 272.93 98.17 277.19 94.89 C 279.46 93.05 282.52 93.42 285.23 92.94 C 285.36 89.63 284.98 86.30 285.46 83.02 C 287.81 80.26 290.10 77.15 289.29 73.27 Z" />
<path fill="#ffffff" opacity="1.00" d=" M 371.40 102.79 C 373.48 103.40 375.28 104.76 376.42 106.61 C 376.70 109.71 376.52 112.82 376.56 115.92 C 374.42 116.68 372.30 117.48 370.18 118.25 C 371.01 113.12 371.43 107.99 371.40 102.79 Z" />
<path fill="#ffffff" opacity="1.00" d=" M 323.50 201.95 C 325.22 197.31 329.64 194.72 333.51 192.05 C 333.45 193.48 333.39 194.92 333.33 196.35 C 329.55 197.25 326.43 199.52 323.50 201.95 Z" />
</g>
</svg>
