<?xml version="1.0" encoding="UTF-8" ?>
<!DOCTYPE svg PUBLIC "-//W3C//DTD SVG 1.1//EN" "http://www.w3.org/Graphics/SVG/1.1/DTD/svg11.dtd">
<svg width="793pt" height="632pt" viewBox="0 0 793 632" version="1.1" xmlns="http://www.w3.org/2000/svg">
<g id="#fdfdfdfd">
<path fill="#fdfdfd" opacity="1.00" d=" M 739.69 287.04 C 743.02 285.44 746.19 283.29 749.92 282.74 C 754.64 283.38 758.06 286.89 762.13 289.02 C 763.96 290.11 766.19 290.73 767.62 292.42 C 768.18 295.84 767.59 299.34 768.16 302.77 C 770.34 304.62 773.44 305.23 775.44 307.39 C 777.58 309.69 778.76 312.71 780.89 315.02 C 782.31 315.85 784.10 315.62 785.68 316.01 C 785.67 325.73 785.63 335.47 785.49 345.20 C 787.03 346.76 788.71 348.18 790.23 349.77 C 772.70 349.73 755.16 349.94 737.62 349.69 C 735.26 343.81 728.43 342.72 724.05 338.90 C 720.40 335.80 716.16 333.50 712.52 330.42 C 710.56 325.80 711.92 320.55 711.44 315.67 C 712.90 315.54 714.37 315.49 715.84 315.23 C 718.65 313.21 720.39 310.14 722.51 307.48 C 724.27 305.32 727.26 305.21 729.76 304.57 C 730.65 300.97 729.84 297.21 730.67 293.62 C 732.75 290.37 736.34 288.67 739.69 287.04 Z" />
</g>
</svg>
