<?xml version="1.0" encoding="UTF-8" ?>
<!DOCTYPE svg PUBLIC "-//W3C//DTD SVG 1.1//EN" "http://www.w3.org/Graphics/SVG/1.1/DTD/svg11.dtd">
<svg width="793pt" height="632pt" viewBox="0 0 793 632" version="1.1" xmlns="http://www.w3.org/2000/svg">
<g id="#ffffffff">
<path fill="#ffffff" opacity="1.00" d=" M 408.82 82.75 C 411.23 79.21 413.82 75.79 416.12 72.18 C 419.67 76.25 423.99 80.00 425.80 85.24 C 427.69 89.37 429.88 93.36 431.55 97.59 C 433.82 101.23 436.10 104.88 438.18 108.64 C 439.19 109.46 440.34 110.10 441.43 110.82 C 439.24 116.21 442.74 122.05 446.78 125.58 C 448.29 125.20 449.82 124.82 451.36 124.49 C 450.50 120.27 453.65 116.80 455.28 113.17 C 455.65 113.17 456.38 113.16 456.75 113.16 C 461.42 120.16 464.70 127.95 468.58 135.40 C 469.43 137.54 471.87 138.24 473.96 138.47 C 480.55 138.63 487.15 138.36 493.74 138.55 C 495.94 138.78 499.08 142.44 500.08 138.72 C 503.08 138.52 505.90 137.37 508.12 135.32 C 510.37 136.12 512.64 136.90 514.88 137.76 C 516.27 138.27 516.44 140.17 517.83 140.77 C 519.27 140.10 520.59 139.22 522.03 138.55 C 529.13 138.24 536.28 138.89 543.35 138.27 C 547.24 137.78 548.11 133.59 549.72 130.70 C 552.94 124.72 555.19 118.03 560.03 113.08 C 562.62 116.49 564.88 120.38 565.65 124.63 C 566.87 124.94 568.10 125.37 569.39 125.41 C 572.57 123.06 574.02 119.27 575.29 115.67 C 575.58 114.06 574.77 112.48 574.56 110.91 C 583.27 102.93 586.73 91.22 592.15 81.09 C 594.85 78.39 596.48 74.14 599.95 72.53 C 604.12 78.20 607.82 84.23 612.42 89.58 C 614.56 92.42 617.00 95.03 618.91 98.05 C 621.86 102.73 626.26 106.20 630.74 109.33 C 631.55 112.17 626.92 112.42 626.63 115.00 C 626.36 122.81 626.63 130.64 626.51 138.45 C 628.30 138.49 630.10 138.52 631.90 138.63 C 630.80 140.41 629.30 141.97 628.55 143.94 C 628.56 149.24 628.22 154.57 628.77 159.85 C 629.26 160.08 630.24 160.55 630.73 160.78 C 630.23 164.98 630.71 169.21 630.39 173.43 C 629.55 172.05 628.88 170.56 628.21 169.10 C 624.56 168.74 622.40 172.74 622.57 175.94 C 622.62 183.70 622.51 191.46 622.65 199.22 C 625.88 199.62 630.03 198.78 632.41 201.55 C 633.77 204.87 633.00 208.61 633.47 212.12 C 633.44 222.48 634.09 232.89 633.20 243.22 C 631.40 243.51 629.50 244.17 627.74 243.39 C 626.31 242.09 626.41 240.07 626.13 238.32 C 618.87 234.69 612.80 228.98 605.24 225.88 C 597.70 222.88 591.91 216.99 584.99 212.96 C 583.58 211.58 583.84 209.37 583.57 207.57 C 581.02 207.99 579.16 206.32 578.06 204.22 C 575.65 204.59 572.58 205.42 570.86 203.12 C 568.65 201.07 569.54 197.82 569.17 195.17 C 566.22 192.20 561.49 194.44 557.98 192.51 C 542.88 192.70 527.78 192.54 512.69 192.60 C 512.60 189.42 512.76 185.98 510.63 183.37 C 506.40 177.98 501.67 172.75 495.63 169.36 C 487.52 164.56 480.37 158.29 471.91 154.06 C 463.93 149.38 455.14 146.40 446.92 142.18 C 440.77 139.59 434.65 136.75 429.36 132.61 C 420.18 127.02 412.90 117.93 402.04 115.46 C 397.07 115.25 391.58 114.51 387.40 117.82 C 387.57 116.20 387.74 114.59 387.88 112.97 C 386.80 111.91 384.23 111.25 385.30 109.31 C 388.84 106.19 393.09 103.79 395.82 99.83 C 399.68 93.78 404.72 88.62 408.82 82.75 M 615.34 170.45 C 614.73 171.92 614.03 173.37 613.74 174.95 C 613.53 182.83 613.95 190.73 613.53 198.61 C 615.55 198.74 617.57 198.85 619.61 198.92 C 619.63 191.00 619.65 183.09 619.62 175.17 C 619.66 173.40 618.54 171.93 617.81 170.41 C 617.19 170.42 615.96 170.44 615.34 170.45 M 606.59 172.26 C 605.62 174.35 604.73 176.57 604.88 178.93 C 604.97 185.18 604.67 191.44 605.12 197.68 C 606.99 197.90 608.88 198.16 610.77 198.37 C 610.57 190.41 611.05 182.43 610.54 174.49 C 610.52 172.27 608.27 172.10 606.59 172.26 M 598.68 173.20 C 596.53 180.96 597.66 189.21 597.84 197.17 C 599.49 197.27 601.16 197.37 602.83 197.47 C 602.86 191.30 602.83 185.13 602.87 178.96 C 602.83 177.28 602.87 175.51 602.13 173.97 C 601.30 172.92 599.81 173.42 598.68 173.20 M 592.45 174.45 C 591.90 181.77 592.20 189.14 592.29 196.48 C 593.50 196.55 594.72 196.64 595.94 196.73 C 595.71 189.29 596.28 181.82 595.58 174.41 C 594.53 174.42 593.49 174.43 592.45 174.45 Z" />
</g>
</svg>
