<?xml version="1.0" encoding="UTF-8" ?>
<!DOCTYPE svg PUBLIC "-//W3C//DTD SVG 1.1//EN" "http://www.w3.org/Graphics/SVG/1.1/DTD/svg11.dtd">
<svg width="793pt" height="632pt" viewBox="0 0 793 632" version="1.1" xmlns="http://www.w3.org/2000/svg">
<g id="#ffffffff">
<path fill="#ffffff" opacity="1.00" d=" M 650.50 152.46 C 651.84 152.40 653.20 152.34 654.56 152.29 C 656.13 155.65 655.34 159.37 655.68 162.93 C 657.24 167.00 661.24 169.89 661.78 174.37 C 662.65 177.52 661.79 180.92 663.01 184.01 C 663.56 185.60 663.79 187.29 663.76 188.98 C 663.77 197.39 663.69 205.80 663.79 214.20 C 667.89 214.27 671.98 214.28 676.08 214.20 C 676.12 208.84 678.81 203.92 678.50 198.51 C 680.12 198.41 681.76 198.38 683.40 198.37 C 683.54 203.53 685.46 208.39 685.88 213.50 C 689.25 213.80 692.63 214.67 696.03 214.02 C 698.13 213.46 700.22 214.18 702.29 214.55 C 702.30 217.34 701.94 220.21 702.65 222.94 C 704.40 226.33 708.60 225.76 711.78 226.41 C 711.81 231.61 711.55 236.82 711.90 242.01 C 712.78 248.11 711.76 254.32 712.50 260.43 C 713.54 263.77 717.29 263.86 720.21 263.90 C 720.32 272.63 720.20 281.36 720.26 290.09 C 719.87 292.26 721.95 293.42 722.90 295.08 C 723.14 299.71 722.93 304.36 723.00 309.00 C 707.39 308.89 691.76 309.22 676.16 308.84 C 673.32 307.07 670.85 304.75 667.85 303.23 C 663.21 300.92 658.30 299.01 654.14 295.86 C 649.39 292.35 646.54 286.86 641.58 283.58 C 641.68 279.71 641.55 275.84 641.55 271.98 C 641.73 269.62 639.72 267.55 640.46 265.19 C 640.94 263.15 641.96 261.20 641.76 259.04 C 641.73 235.67 641.76 212.29 641.75 188.92 C 641.78 185.83 643.70 183.12 643.71 180.03 C 643.68 177.15 644.10 174.28 644.90 171.51 C 646.70 168.38 649.58 165.71 650.04 161.97 C 650.45 158.82 650.15 155.62 650.50 152.46 Z" />
</g>
</svg>
