<?xml version="1.0" encoding="UTF-8" ?>
<!DOCTYPE svg PUBLIC "-//W3C//DTD SVG 1.1//EN" "http://www.w3.org/Graphics/SVG/1.1/DTD/svg11.dtd">
<svg width="793pt" height="632pt" viewBox="0 0 793 632" version="1.1" xmlns="http://www.w3.org/2000/svg">
<g id="#fefefefe">
<path fill="#ffffff" opacity="1.00" d=" M 448.92 10.03 C 453.72 6.61 459.70 8.33 464.90 9.71 C 464.74 12.95 462.54 16.41 464.17 19.82 C 466.16 20.70 469.05 19.43 470.53 21.14 C 469.59 23.21 467.02 24.60 467.30 27.08 C 467.43 34.56 467.04 42.06 467.57 49.52 C 468.73 50.55 470.45 50.20 471.86 50.59 C 471.16 52.04 469.95 53.29 469.69 54.91 C 470.18 56.27 470.80 57.59 471.29 58.96 C 470.79 60.65 470.10 62.29 469.69 64.01 C 469.86 91.34 469.69 118.67 469.68 146.01 C 470.66 147.00 473.37 146.82 472.89 148.69 C 471.81 149.53 470.63 150.22 469.56 151.05 C 469.64 152.66 470.42 154.11 470.85 155.65 C 470.68 155.80 470.35 156.12 470.18 156.28 C 463.31 152.12 455.78 149.29 448.91 145.14 C 446.12 143.47 442.67 142.75 440.24 140.60 C 440.20 135.05 439.65 129.40 441.25 124.02 C 441.40 102.99 441.22 81.95 441.34 60.93 C 441.24 57.49 443.09 54.30 442.42 50.87 C 443.12 50.01 443.85 49.18 444.54 48.31 C 445.28 39.41 443.85 30.35 445.66 21.53 C 446.80 19.84 449.50 18.59 448.57 16.19 C 448.12 14.23 446.54 11.38 448.92 10.03 Z" />
</g>
</svg>
