<?xml version="1.0" encoding="UTF-8" ?>
<!DOCTYPE svg PUBLIC "-//W3C//DTD SVG 1.1//EN" "http://www.w3.org/Graphics/SVG/1.1/DTD/svg11.dtd">
<svg width="1099pt" height="778pt" viewBox="0 0 1099 778" version="1.1" xmlns="http://www.w3.org/2000/svg">
<g id="#325070ff">
<path fill="#325070" opacity="1.00" d=" M 549.32 0.00 L 549.64 0.00 C 732.79 129.52 915.86 259.15 1099.00 388.68 L 1099.00 388.88 C 917.64 517.25 736.23 645.54 554.82 773.85 C 553.03 775.09 551.19 776.30 549.79 778.00 L 549.18 778.00 C 548.68 777.11 548.01 776.39 547.19 775.83 C 364.80 646.87 182.39 517.92 0.00 388.95 L 0.00 388.73 C 183.05 259.08 366.19 129.55 549.32 0.00 M 89.16 388.70 C 242.58 497.41 396.04 606.07 549.46 714.78 C 703.01 606.13 856.55 497.47 1010.08 388.79 C 856.54 280.17 703.02 171.50 549.49 62.84 C 396.03 171.44 242.61 280.08 89.16 388.70 Z" />
<path fill="#325070" opacity="1.00" d=" M 591.67 120.79 C 717.48 210.01 843.28 299.26 969.07 388.50 C 843.38 477.58 717.70 566.67 592.00 655.73 C 592.00 647.49 591.98 639.25 592.01 631.01 C 592.49 619.35 588.04 607.53 579.81 599.22 C 569.84 588.95 554.47 584.38 540.52 587.66 C 525.13 590.99 512.28 603.65 508.79 619.01 C 507.23 624.53 507.73 630.30 507.67 635.97 C 507.67 642.62 507.66 649.27 507.67 655.92 C 381.92 566.80 256.19 477.66 130.49 388.48 C 256.12 299.37 381.70 210.18 507.33 121.06 C 507.34 130.73 507.33 140.41 507.32 150.08 C 507.73 162.52 514.04 174.57 523.97 182.07 C 534.30 190.08 548.45 192.74 561.00 189.11 C 578.23 184.44 591.14 167.87 591.67 150.06 C 591.67 140.31 591.65 130.55 591.67 120.79 M 414.30 247.44 C 414.94 263.31 415.65 279.17 416.31 295.04 C 416.23 296.82 417.53 298.19 418.35 299.66 C 422.14 305.51 425.57 311.60 429.49 317.37 C 442.69 325.97 456.19 334.14 469.48 342.63 C 469.88 359.65 469.92 376.67 470.43 393.68 C 478.26 410.92 486.71 427.90 494.78 445.03 C 495.69 447.26 497.47 449.39 497.10 451.94 C 496.49 459.66 495.71 467.37 495.21 475.10 C 501.95 487.19 509.48 498.89 516.54 510.82 C 538.48 510.81 560.42 510.89 582.37 510.78 C 589.35 498.95 596.66 487.31 603.56 475.44 C 603.29 467.27 602.15 459.12 601.70 450.95 C 601.89 448.57 603.47 446.56 604.37 444.38 C 612.32 427.45 620.72 410.69 628.40 393.65 C 628.93 376.65 628.94 359.62 629.37 342.61 C 642.67 334.14 656.17 325.95 669.37 317.34 C 673.30 311.56 676.73 305.43 680.55 299.56 C 681.29 298.18 682.52 296.92 682.50 295.26 C 683.21 279.33 683.87 263.39 684.54 247.45 C 680.48 251.08 676.20 254.49 672.36 258.34 C 668.05 267.15 664.12 276.17 659.94 285.05 C 655.34 286.81 650.86 288.89 646.19 290.41 C 637.72 290.63 629.23 290.43 620.76 290.50 C 614.54 284.34 608.61 277.88 602.32 271.81 C 594.20 271.87 586.09 271.81 577.98 271.84 C 568.07 272.52 558.89 267.80 549.27 266.28 C 541.79 267.88 534.48 270.30 526.98 271.78 C 516.79 271.94 506.59 271.77 496.40 271.85 C 490.22 278.00 484.24 284.33 478.08 290.50 C 469.74 290.46 461.40 290.59 453.07 290.45 C 448.21 289.17 443.69 286.78 438.96 285.10 C 434.97 276.66 431.12 268.15 427.21 259.68 C 426.61 258.10 425.26 257.05 424.04 255.97 C 420.77 253.16 417.57 250.26 414.30 247.44 Z" />
</g>
</svg>
