<?xml version="1.0" encoding="UTF-8" ?>
<!DOCTYPE svg PUBLIC "-//W3C//DTD SVG 1.1//EN" "http://www.w3.org/Graphics/SVG/1.1/DTD/svg11.dtd">
<svg width="289pt" height="289pt" viewBox="0 0 289 289" version="1.1" xmlns="http://www.w3.org/2000/svg">
<g id="#ffffffff">
<path fill="#ffffff" opacity="1.00" d=" M 1.17 144.40 C 48.91 110.63 96.73 76.97 144.36 43.04 C 192.31 76.67 239.96 110.73 287.89 144.39 C 240.08 177.95 192.52 211.88 144.76 245.52 C 142.58 244.85 140.88 243.05 138.95 241.83 C 93.02 209.36 47.16 176.78 1.17 144.40 M 23.58 144.31 C 63.33 172.77 103.41 200.79 143.24 229.14 C 144.49 230.75 145.90 228.82 147.04 228.22 C 171.13 211.08 195.31 194.08 219.44 176.99 C 234.66 165.98 250.31 155.53 265.31 144.23 C 226.15 116.55 186.98 88.87 147.85 61.12 C 146.66 60.39 145.63 59.22 144.19 59.00 C 104.01 87.45 63.79 115.88 23.58 144.31 Z" />
<path fill="#ffffff" opacity="1.00" d=" M 35.32 144.28 C 68.06 121.48 100.45 98.18 133.10 75.26 C 133.00 79.97 132.70 85.29 135.90 89.15 C 140.32 93.94 148.77 93.87 153.19 89.11 C 156.29 85.23 155.98 79.94 155.89 75.26 C 188.53 98.26 221.06 121.44 253.75 144.39 C 221.06 167.31 188.53 190.46 155.93 213.52 C 155.91 209.08 156.31 204.21 153.71 200.34 C 149.29 194.44 138.90 194.60 134.91 200.91 C 132.76 204.72 133.07 209.23 133.08 213.45 C 100.44 190.47 67.87 167.39 35.32 144.28 M 128.51 108.71 C 117.10 110.09 105.75 113.12 95.60 118.61 C 88.04 122.68 80.85 128.41 77.37 136.48 C 74.31 143.41 75.92 151.66 80.38 157.59 C 86.96 166.48 97.23 171.73 107.43 175.36 C 128.82 182.35 152.20 182.88 174.03 177.58 C 186.74 174.20 199.80 168.75 208.19 158.18 C 213.71 151.43 215.06 141.25 210.22 133.75 C 203.15 121.92 189.74 115.87 177.05 112.03 C 161.32 107.66 144.68 106.53 128.51 108.71 Z" />
<path fill="#ffffff" opacity="1.00" d=" M 98.48 128.64 C 101.47 128.75 104.45 128.53 107.44 128.38 C 107.43 132.35 107.47 136.31 107.39 140.28 C 110.21 140.23 113.04 140.23 115.87 140.24 C 116.11 136.36 116.28 132.46 115.87 128.58 C 118.96 128.36 122.05 128.40 125.14 128.48 C 124.95 139.02 124.75 149.56 125.16 160.10 C 122.15 160.11 119.16 160.28 116.16 160.40 C 115.66 155.90 116.46 151.39 116.00 146.89 C 113.14 146.80 110.28 146.85 107.42 146.90 C 107.45 151.32 107.45 155.75 107.43 160.17 C 104.45 160.34 101.47 160.38 98.49 160.36 C 98.47 149.78 98.53 139.21 98.48 128.64 Z" />
<path fill="#ffffff" opacity="1.00" d=" M 133.09 128.60 C 136.10 128.59 139.10 128.50 142.11 128.42 C 142.12 133.08 141.76 137.75 142.10 142.41 C 144.71 137.92 146.88 133.20 149.30 128.62 C 152.45 128.33 155.62 128.40 158.78 128.49 C 155.64 132.71 152.94 137.23 150.07 141.64 C 153.01 147.84 156.25 153.91 159.56 159.92 C 156.25 160.24 152.93 160.37 149.61 160.25 C 147.37 154.67 144.85 149.17 141.92 143.91 C 142.00 149.31 141.90 154.72 142.15 160.12 C 139.18 160.10 136.22 160.22 133.26 160.34 C 133.87 149.79 133.72 139.16 133.09 128.60 Z" />
<path fill="#ffffff" opacity="1.00" d=" M 164.84 128.59 C 167.32 128.56 169.81 128.47 172.29 128.42 C 175.98 134.13 179.83 139.75 183.69 145.34 C 183.88 139.73 183.70 134.12 183.75 128.52 C 186.01 128.43 188.27 128.42 190.53 128.42 C 190.51 139.02 190.56 149.62 190.50 160.22 C 188.54 160.29 186.58 160.35 184.63 160.39 C 180.24 154.25 176.51 147.58 171.61 141.83 C 171.69 147.92 171.95 154.01 172.21 160.09 C 169.78 160.12 167.36 160.24 164.94 160.39 C 164.96 149.79 164.97 139.19 164.84 128.59 Z" />
</g>
</svg>
