<?xml version="1.0" encoding="UTF-8" ?>
<!DOCTYPE svg PUBLIC "-//W3C//DTD SVG 1.1//EN" "http://www.w3.org/Graphics/SVG/1.1/DTD/svg11.dtd">
<svg width="1000pt" height="1002pt" viewBox="0 0 1000 1002" version="1.1" xmlns="http://www.w3.org/2000/svg">
<g id="#365171ff">
<path fill="#365171" opacity="1.00" d=" M 471.60 2.83 C 555.40 -2.06 640.42 14.42 716.07 50.89 C 785.53 84.18 847.05 133.84 894.30 194.66 C 933.74 245.20 963.26 303.44 980.64 365.14 C 1008.76 464.64 1005.14 572.90 969.98 670.17 C 943.54 743.77 899.37 810.88 842.39 864.42 C 787.11 916.59 719.75 955.90 647.06 978.16 C 542.44 1010.37 427.19 1007.00 324.76 968.32 C 260.29 944.14 200.97 906.35 151.78 858.17 C 97.51 805.40 55.56 740.07 30.16 668.76 C -4.18 572.78 -7.94 466.23 19.21 368.00 C 40.16 291.68 79.84 220.65 133.57 162.56 C 180.77 111.40 238.73 70.18 302.68 42.66 C 356.05 19.55 413.54 6.06 471.60 2.83 M 464.60 14.81 C 389.22 20.18 315.21 43.51 250.42 82.42 C 195.36 115.31 146.92 159.19 108.72 210.70 C 63.01 272.07 32.11 344.40 19.55 419.90 C 10.72 472.44 10.55 526.42 19.03 579.03 C 31.51 657.30 63.73 732.26 111.70 795.34 C 156.79 854.91 215.76 903.92 282.61 937.31 C 338.44 965.27 399.73 982.26 461.99 987.05 C 513.15 991.05 564.94 987.04 614.83 975.00 C 689.99 957.00 760.59 920.53 818.99 869.92 C 878.01 818.94 924.68 753.68 953.45 681.15 C 992.14 584.46 998.30 475.26 971.29 374.72 C 955.72 316.44 929.09 261.17 893.34 212.60 C 850.04 153.62 793.32 104.55 728.69 70.25 C 648.24 27.30 555.51 8.02 464.60 14.81 Z" />
<path fill="#365171" opacity="1.00" d=" M 474.02 41.41 C 483.82 41.14 493.63 40.87 503.43 40.52 C 503.44 43.49 503.57 46.46 503.79 49.43 C 497.51 49.67 491.23 49.84 484.95 50.05 C 485.10 54.47 485.32 58.89 485.29 63.31 C 491.08 63.14 496.88 63.03 502.68 62.71 C 502.89 65.70 503.02 68.70 503.03 71.70 C 497.23 71.83 491.43 71.96 485.64 72.25 C 485.80 78.97 485.89 85.69 486.28 92.40 C 482.70 92.59 479.12 92.73 475.54 92.78 C 474.88 75.66 474.53 58.54 474.02 41.41 Z" />
<path fill="#365171" opacity="1.00" d=" M 530.35 41.25 C 533.96 41.57 537.58 41.83 541.20 42.07 C 539.86 59.15 538.57 76.23 537.32 93.31 C 533.69 93.03 530.06 92.78 526.44 92.42 C 527.78 75.37 528.98 58.30 530.35 41.25 Z" />
<path fill="#365171" opacity="1.00" d=" M 553.77 43.09 C 563.54 44.45 573.30 45.92 583.06 47.33 C 582.64 50.27 582.24 53.21 581.83 56.16 C 575.66 55.24 569.48 54.41 563.32 53.44 C 562.73 57.16 562.21 60.89 561.65 64.61 C 567.39 65.50 573.15 66.28 578.89 67.18 C 578.46 70.10 578.05 73.01 577.65 75.93 C 571.89 75.16 566.12 74.38 560.39 73.40 C 559.74 77.79 559.17 82.19 558.43 86.57 C 564.58 87.49 570.73 88.43 576.90 89.20 C 576.55 92.18 576.17 95.16 575.70 98.13 C 565.93 96.82 556.18 95.34 546.42 93.91 C 548.84 76.96 551.38 60.04 553.77 43.09 Z" />
<path fill="#365171" opacity="1.00" d=" M 435.50 44.74 C 441.85 43.56 448.90 43.79 454.45 47.47 C 461.07 51.62 464.01 59.54 465.03 66.96 C 466.19 74.54 465.50 83.13 460.23 89.14 C 454.84 95.45 446.00 97.35 438.05 97.14 C 430.07 96.95 422.57 91.82 419.54 84.43 C 416.21 76.44 415.05 67.17 417.61 58.80 C 420.11 51.00 427.64 45.94 435.50 44.74 M 437.36 53.61 C 431.77 54.40 427.95 59.67 427.68 65.10 C 427.32 71.56 428.27 78.56 432.14 83.93 C 436.39 89.30 444.95 88.97 450.04 85.01 C 454.27 81.25 454.53 75.04 453.89 69.81 C 453.25 64.83 452.13 59.34 448.20 55.86 C 445.32 53.17 441.05 52.84 437.36 53.61 Z" />
<path fill="#365171" opacity="1.00" d=" M 594.18 49.51 C 603.75 51.83 613.34 54.10 622.93 56.33 C 622.28 59.25 621.57 62.15 620.86 65.06 C 614.81 63.57 608.74 62.14 602.66 60.74 C 601.82 64.39 600.97 68.04 600.11 71.69 C 605.72 73.06 611.35 74.38 616.98 75.71 C 616.32 78.62 615.62 81.52 614.97 84.42 C 609.33 83.01 603.66 81.78 598.03 80.36 C 597.00 84.66 595.99 88.96 594.96 93.26 C 601.03 94.68 607.09 96.16 613.15 97.61 C 612.46 100.52 611.76 103.43 611.04 106.33 C 601.46 104.02 591.85 101.81 582.28 99.47 C 586.28 82.82 590.20 66.16 594.18 49.51 Z" />
<path fill="#365171" opacity="1.00" d=" M 351.41 64.87 C 360.20 62.69 368.77 58.37 378.01 58.93 C 387.48 59.42 393.17 71.19 389.23 79.34 C 388.18 81.64 386.39 83.47 384.71 85.31 C 391.67 90.98 398.54 96.76 405.57 102.33 C 401.68 103.50 397.80 104.67 393.90 105.79 C 388.13 100.63 382.31 95.52 376.49 90.42 C 374.65 90.99 372.82 91.55 370.99 92.10 C 372.84 98.42 374.80 104.70 376.63 111.02 C 373.14 112.05 369.66 113.11 366.17 114.13 C 361.29 97.70 356.34 81.29 351.41 64.87 M 364.43 70.22 C 365.76 74.71 367.08 79.21 368.47 83.69 C 372.19 82.38 376.65 81.57 379.08 78.14 C 380.56 75.22 379.61 71.05 376.89 69.17 C 372.89 67.17 368.43 69.29 364.43 70.22 Z" />
<path fill="#365171" opacity="1.00" d=" M 617.13 109.08 C 622.53 92.82 628.05 76.59 633.44 60.33 C 642.77 63.50 652.13 66.56 661.47 69.70 C 660.52 72.53 659.58 75.35 658.64 78.18 C 652.74 76.21 646.84 74.24 640.94 72.28 C 639.76 75.86 638.56 79.43 637.30 82.98 C 642.80 84.81 648.30 86.63 653.80 88.49 C 652.86 91.31 651.92 94.13 650.98 96.96 C 645.46 95.17 640.02 93.19 634.53 91.35 C 633.10 95.56 631.70 99.77 630.31 103.98 C 636.23 105.94 642.14 107.94 648.07 109.88 C 647.12 112.73 646.17 115.59 645.22 118.44 C 635.86 115.32 626.50 112.19 617.13 109.08 Z" />
<path fill="#365171" opacity="1.00" d=" M 312.46 80.06 C 321.61 76.40 330.69 72.57 339.83 68.88 C 340.97 71.62 342.09 74.36 343.22 77.10 C 337.45 79.46 331.68 81.84 325.90 84.19 C 327.37 87.66 328.81 91.14 330.22 94.64 C 335.57 92.42 340.92 90.18 346.31 88.05 C 347.43 90.78 348.54 93.52 349.69 96.24 C 344.33 98.45 338.98 100.69 333.59 102.83 C 335.26 106.92 336.94 111.00 338.61 115.09 C 344.40 112.80 350.12 110.37 355.89 108.03 C 357.03 110.78 358.16 113.53 359.31 116.28 C 350.24 120.12 341.07 123.76 331.99 127.57 C 325.46 111.74 319.04 95.87 312.46 80.06 Z" />
<path fill="#365171" opacity="1.00" d=" M 692.52 81.85 C 701.43 86.15 710.24 90.64 719.15 94.93 C 717.84 97.61 716.50 100.27 715.19 102.95 C 709.62 100.13 704.01 97.38 698.38 94.71 C 696.68 98.08 694.99 101.45 693.32 104.83 C 698.58 107.29 703.77 109.87 708.96 112.47 C 707.65 115.16 706.31 117.82 704.98 120.49 C 699.82 117.91 694.66 115.31 689.48 112.76 C 687.49 116.72 685.51 120.69 683.53 124.65 C 689.12 127.37 694.63 130.25 700.25 132.91 C 698.92 135.60 697.66 138.31 696.39 141.03 C 687.57 136.58 678.65 132.31 669.81 127.91 C 677.30 112.52 685.18 97.32 692.52 81.85 Z" />
<path fill="#365171" opacity="1.00" d=" M 270.60 101.86 C 281.99 95.78 293.54 89.99 304.93 83.89 C 306.29 86.59 307.72 89.25 309.12 91.92 C 305.06 94.14 300.92 96.22 296.80 98.34 C 303.19 110.89 309.75 123.36 316.31 135.83 C 313.11 137.57 309.86 139.24 306.61 140.90 C 300.11 128.40 293.69 115.86 287.07 103.43 C 282.97 105.58 278.89 107.75 274.77 109.84 C 273.37 107.18 272.02 104.50 270.60 101.86 Z" />
<path fill="#365171" opacity="1.00" d=" M 657.04 96.94 C 662.85 99.36 668.67 101.74 674.48 104.15 C 673.31 106.83 672.22 109.55 671.11 112.25 C 665.29 109.84 659.48 107.44 653.66 105.05 C 654.76 102.34 655.89 99.64 657.04 96.94 Z" />
<path fill="#365171" opacity="1.00" d=" M 724.05 98.00 C 735.06 104.78 746.08 111.56 757.11 118.31 C 755.50 120.85 753.94 123.41 752.42 126.00 C 748.40 123.65 744.48 121.15 740.50 118.74 C 733.08 130.72 725.77 142.78 718.33 154.75 C 715.27 152.83 712.20 150.93 709.13 149.03 C 716.46 137.01 723.89 125.03 731.23 113.01 C 727.25 110.61 723.32 108.13 719.33 105.75 C 720.93 103.19 722.50 100.60 724.05 98.00 Z" />
<path fill="#365171" opacity="1.00" d=" M 236.43 123.44 C 243.98 119.17 250.57 112.86 259.08 110.51 C 271.49 107.04 282.41 123.45 276.17 134.03 C 273.39 139.11 268.33 142.21 263.61 145.24 C 266.90 150.38 270.24 155.48 273.54 160.61 C 270.45 162.52 267.41 164.51 264.36 166.48 C 255.13 152.08 245.74 137.78 236.43 123.44 M 250.46 125.03 C 253.19 129.30 255.98 133.54 258.70 137.83 C 262.06 135.58 266.26 133.36 267.23 129.08 C 267.70 124.73 263.87 119.51 259.15 120.32 C 255.87 121.04 253.21 123.24 250.46 125.03 Z" />
<path fill="#365171" opacity="1.00" d=" M 476.64 117.82 C 520.78 115.16 565.40 119.94 607.86 132.35 C 678.09 152.65 742.06 193.77 789.96 248.95 C 837.52 303.35 869.21 371.46 879.89 442.94 C 889.66 507.32 883.02 574.20 860.17 635.22 C 842.20 683.61 814.17 728.18 778.62 765.59 C 743.60 802.44 701.23 832.29 654.67 852.71 C 602.15 875.84 544.36 886.78 487.03 884.72 C 414.04 882.46 341.92 858.61 281.98 816.91 C 222.31 775.68 174.63 717.27 146.50 650.39 C 105.74 554.75 106.45 442.43 148.38 347.30 C 177.71 280.01 226.85 221.55 288.06 181.05 C 343.86 143.78 409.66 121.75 476.64 117.82 M 470.54 129.79 C 413.29 134.29 357.13 152.28 308.03 182.10 C 245.27 219.89 194.09 276.62 163.05 343.00 C 136.38 399.48 124.63 462.79 128.68 525.08 C 133.42 602.83 163.64 678.69 213.50 738.51 C 260.44 795.35 324.60 837.80 395.39 858.43 C 437.62 870.83 482.08 875.62 525.99 872.57 C 580.10 868.93 633.37 853.26 680.75 826.85 C 728.05 800.65 769.48 763.96 801.34 720.28 C 833.23 676.69 855.41 626.05 865.78 573.03 C 881.08 495.57 871.09 413.28 837.11 341.95 C 805.65 275.23 753.82 218.34 690.36 180.74 C 624.73 141.46 546.74 123.55 470.54 129.79 Z" />
<path fill="#365171" opacity="1.00" d=" M 728.99 160.99 C 744.28 151.03 759.48 140.94 774.77 130.99 C 778.28 133.70 781.86 136.34 785.33 139.11 C 779.69 156.44 774.18 173.81 768.47 191.11 C 765.37 188.76 762.29 186.39 759.16 184.09 C 760.62 180.06 762.13 176.06 763.64 172.05 C 758.67 168.25 753.69 164.45 748.71 160.67 C 745.27 163.15 741.81 165.60 738.41 168.13 C 735.24 165.78 732.11 163.38 728.99 160.99 M 756.44 155.08 C 760.02 157.75 763.57 160.49 767.12 163.22 C 769.75 155.97 772.33 148.70 775.17 141.53 C 768.96 146.11 762.70 150.59 756.44 155.08 Z" />
<path fill="#365171" opacity="1.00" d=" M 204.65 147.62 C 208.08 144.83 211.50 142.04 214.94 139.27 C 230.44 148.76 245.92 158.30 261.44 167.76 C 258.45 170.24 255.41 172.68 252.42 175.16 C 248.87 172.82 245.38 170.39 241.85 168.03 C 236.93 171.89 232.16 175.93 227.25 179.79 C 228.90 183.73 230.53 187.69 232.07 191.67 C 229.02 194.08 226.02 196.56 223.00 199.01 C 216.90 181.87 210.69 164.78 204.65 147.62 M 214.98 149.83 C 217.93 156.89 220.87 163.95 223.67 171.07 C 227.08 168.19 230.56 165.39 234.04 162.60 C 227.67 158.36 221.32 154.11 214.98 149.83 Z" />
<path fill="#365171" opacity="1.00" d=" M 177.50 172.14 C 180.03 169.60 182.57 167.06 185.12 164.52 C 197.48 176.29 209.54 188.39 221.87 200.21 C 219.31 202.73 216.83 205.33 214.45 208.02 C 208.92 203.06 203.80 197.67 198.44 192.53 C 193.74 197.44 188.87 202.19 184.24 207.18 C 189.58 212.22 194.69 217.48 200.08 222.46 C 197.64 225.18 195.13 227.83 192.51 230.38 C 180.26 218.47 168.13 206.43 155.74 194.68 C 158.14 191.90 160.74 189.30 163.38 186.75 C 168.10 191.54 173.10 196.04 177.78 200.87 C 182.28 195.81 187.34 191.28 191.83 186.20 C 187.20 181.36 182.19 176.92 177.50 172.14 Z" />
<path fill="#365171" opacity="1.00" d=" M 780.47 202.58 C 792.87 190.71 805.02 178.60 817.40 166.71 C 819.78 169.40 822.28 171.98 824.85 174.50 C 819.41 180.08 813.59 185.28 808.21 190.92 C 817.98 189.26 827.89 188.67 837.73 187.53 C 840.39 190.54 843.23 193.38 846.09 196.20 C 836.49 197.21 826.89 198.23 817.30 199.27 C 814.88 208.78 812.80 218.37 810.37 227.88 C 826.46 222.39 842.56 216.90 858.68 211.48 C 861.39 214.95 864.12 218.42 866.85 221.90 C 857.14 237.29 847.31 252.60 837.59 267.99 C 835.19 264.92 832.79 261.84 830.36 258.79 C 832.79 255.28 835.25 251.79 837.68 248.28 C 833.81 243.41 829.96 238.52 826.15 233.62 C 822.16 235.13 818.20 236.71 814.21 238.19 C 810.26 232.78 805.42 228.11 800.73 223.35 C 802.84 215.11 804.75 206.81 806.85 198.57 C 804.95 198.29 803.07 197.97 801.19 197.67 C 796.88 202.00 792.34 206.10 788.12 210.52 C 785.67 207.78 783.10 205.15 780.47 202.58 M 834.96 230.14 C 837.73 233.63 840.46 237.16 843.26 240.63 C 847.63 234.34 851.88 227.98 856.37 221.79 C 849.24 224.58 842.13 227.43 834.96 230.14 Z" />
<path fill="#365171" opacity="1.00" d=" M 139.44 213.51 C 142.55 209.45 146.85 206.54 151.26 204.06 C 152.89 206.78 154.48 209.53 156.05 212.29 C 151.38 214.81 146.15 217.73 144.29 223.06 C 142.46 228.18 145.25 233.59 148.84 237.18 C 152.78 240.99 157.45 244.54 162.98 245.47 C 166.41 246.08 169.93 244.69 172.30 242.21 C 175.97 238.45 177.91 233.42 179.67 228.56 C 182.06 230.50 184.49 232.39 186.92 234.28 C 184.26 242.18 179.53 249.93 172.09 254.10 C 166.01 257.52 158.40 256.66 152.40 253.51 C 144.51 249.41 137.15 242.98 134.55 234.21 C 132.33 227.03 134.80 219.17 139.44 213.51 Z" />
<path fill="#365171" opacity="1.00" d=" M 838.41 270.48 C 852.97 261.43 867.44 252.24 882.01 243.21 C 886.21 250.77 892.30 257.49 894.58 265.97 C 897.86 278.14 882.30 288.55 871.71 283.32 C 866.12 280.61 862.81 275.09 859.69 269.99 C 854.58 273.27 849.40 276.44 844.27 279.69 C 842.29 276.63 840.35 273.56 838.41 270.48 M 867.23 265.28 C 869.13 268.09 870.71 271.37 873.74 273.16 C 877.68 275.45 882.96 272.69 884.56 268.74 C 885.67 264.29 882.25 260.65 880.17 257.12 C 875.88 259.88 871.57 262.59 867.23 265.28 Z" />
<path fill="#365171" opacity="1.00" d=" M 103.52 267.23 C 105.27 264.08 107.03 260.94 108.80 257.80 C 118.51 263.22 128.21 268.67 137.91 274.12 C 142.43 276.60 146.15 280.88 147.10 286.04 C 148.46 292.73 145.62 299.47 141.89 304.91 C 138.56 309.78 133.11 313.60 127.02 313.51 C 123.31 313.66 119.76 312.29 116.59 310.49 C 107.14 305.13 97.64 299.86 88.19 294.52 C 89.99 291.38 91.73 288.21 93.54 285.08 C 102.57 290.18 111.62 295.24 120.67 300.31 C 123.80 302.04 127.66 303.70 131.20 302.15 C 134.62 300.27 136.69 296.56 137.60 292.87 C 138.64 288.67 135.18 285.18 131.89 283.21 C 122.48 277.80 112.96 272.59 103.52 267.23 Z" />
<path fill="#365171" opacity="1.00" d=" M 198.67 495.36 C 299.19 424.15 399.79 353.05 500.33 281.86 C 600.84 353.07 701.47 424.13 801.96 495.36 C 701.41 566.44 600.96 637.65 500.35 708.65 C 399.79 637.55 299.24 566.44 198.67 495.36 M 248.07 495.26 C 332.09 554.88 416.23 614.34 500.24 673.98 C 584.48 614.54 668.56 554.86 752.75 495.35 C 668.62 435.78 584.46 376.24 500.32 316.68 C 416.24 376.23 332.15 435.74 248.07 495.26 Z" />
<path fill="#365171" opacity="1.00" d=" M 859.93 304.82 C 875.24 297.22 890.49 289.50 905.89 282.08 C 909.48 290.28 915.24 297.84 916.26 306.95 C 917.21 317.84 904.18 325.31 894.59 322.29 C 887.54 319.86 884.03 312.74 881.09 306.45 C 875.64 309.26 870.09 311.84 864.60 314.55 C 863.10 311.27 861.54 308.03 859.93 304.82 M 889.07 302.47 C 890.86 305.92 892.38 310.17 896.27 311.78 C 900.54 313.29 906.19 310.06 906.51 305.38 C 906.13 301.89 904.26 298.85 902.76 295.77 C 898.24 298.09 893.59 300.14 889.07 302.47 Z" />
<path fill="#365171" opacity="1.00" d=" M 78.15 316.60 C 79.37 313.55 80.60 310.50 81.87 307.47 C 97.70 313.98 113.61 320.27 129.45 326.75 C 127.74 331.03 126.03 335.32 124.29 339.59 C 109.32 341.66 94.34 343.67 79.38 345.87 C 91.88 349.86 103.88 355.16 116.07 359.99 C 114.85 362.97 113.66 365.98 112.47 368.98 C 96.55 362.65 80.70 356.16 64.80 349.78 C 66.49 345.54 68.21 341.31 69.85 337.05 C 84.67 334.90 99.50 332.86 114.31 330.66 C 102.06 326.48 90.17 321.37 78.15 316.60 Z" />
<path fill="#365171" opacity="1.00" d=" M 875.50 336.02 C 893.73 335.71 911.96 335.39 930.19 335.27 C 931.71 339.41 933.26 343.53 934.76 347.69 C 920.70 359.27 906.72 370.94 892.70 382.58 C 891.32 378.90 889.96 375.22 888.62 371.54 C 892.03 368.99 895.43 366.42 898.81 363.82 C 896.62 357.97 894.48 352.10 892.31 346.25 C 888.05 346.28 883.74 347.18 879.53 346.72 C 877.98 343.23 876.91 339.55 875.50 336.02 M 901.83 345.69 C 903.36 349.87 904.93 354.03 906.47 358.22 C 912.61 353.56 918.67 348.80 924.89 344.24 C 917.21 344.82 909.52 345.27 901.83 345.69 Z" />
<path fill="#365171" opacity="1.00" d=" M 523.26 348.07 C 592.40 397.07 661.50 446.13 730.62 495.15 C 661.62 544.12 592.59 593.06 523.51 641.93 C 523.13 634.80 524.36 627.49 522.60 620.50 C 519.95 611.14 510.84 604.00 501.07 603.97 C 491.41 603.53 482.03 610.02 478.84 619.11 C 476.33 626.47 477.99 634.38 477.47 641.98 C 408.36 593.12 339.37 544.10 270.33 495.16 C 339.31 446.23 408.26 397.27 477.23 348.33 C 477.39 354.26 476.99 360.20 477.43 366.12 C 478.52 377.25 488.74 386.70 500.00 386.55 C 511.46 387.03 522.27 377.49 523.17 366.05 C 523.40 360.06 523.16 354.06 523.26 348.07 M 426.15 417.95 C 426.74 425.98 426.92 434.04 427.25 442.09 C 427.09 445.24 429.45 447.63 430.87 450.22 C 432.57 452.74 433.74 455.88 436.56 457.41 C 443.21 461.53 449.81 465.72 456.45 469.87 C 456.96 479.20 456.54 488.56 457.17 497.89 C 461.50 508.51 467.29 518.54 471.63 529.16 C 471.57 533.72 470.84 538.25 470.65 542.82 C 474.57 549.30 478.47 555.79 482.41 562.26 C 494.35 562.22 506.28 562.26 518.22 562.24 C 522.14 555.71 526.09 549.20 530.01 542.67 C 529.67 538.08 528.94 533.51 529.01 528.90 C 533.42 518.59 538.81 508.70 543.27 498.41 C 544.15 489.00 543.73 479.46 543.99 470.00 C 551.24 465.18 558.90 460.96 565.98 455.92 C 568.55 452.25 571.00 448.41 573.06 444.43 C 573.74 435.67 573.86 426.86 574.29 418.07 C 571.70 420.54 568.29 422.43 566.81 425.83 C 564.82 429.87 563.29 434.14 561.08 438.07 C 554.84 442.82 546.61 441.32 539.30 441.47 C 536.00 438.10 532.59 434.85 529.51 431.29 C 524.33 431.18 519.15 431.32 513.98 431.24 C 509.24 431.11 504.89 428.84 500.22 428.35 C 495.40 428.95 490.89 431.28 485.98 431.26 C 481.11 431.30 476.25 431.22 471.39 431.24 C 468.00 434.64 464.54 437.96 461.29 441.49 C 454.00 441.36 446.14 442.67 439.72 438.35 C 437.00 433.82 435.47 428.68 432.81 424.12 C 430.93 421.73 428.38 419.98 426.15 417.95 Z" />
<path fill="#365171" opacity="1.00" d=" M 55.31 380.76 C 66.18 383.23 77.08 385.55 87.96 387.99 C 93.01 389.10 97.80 392.16 100.18 396.86 C 103.19 402.66 102.63 409.59 100.77 415.66 C 99.23 420.79 96.02 425.75 91.00 428.03 C 86.97 430.06 82.26 429.99 77.95 428.96 C 67.36 426.63 56.79 424.21 46.18 421.95 C 46.99 418.41 47.74 414.86 48.52 411.32 C 58.65 413.56 68.78 415.82 78.91 418.08 C 82.47 418.83 86.77 419.36 89.67 416.67 C 92.50 413.60 93.47 409.07 92.83 405.02 C 91.95 400.97 87.71 399.10 84.06 398.26 C 73.70 395.93 63.32 393.67 52.96 391.34 C 53.73 387.81 54.53 384.29 55.31 380.76 Z" />
<path fill="#365171" opacity="1.00" d=" M 897.46 399.30 C 914.26 396.06 931.07 392.82 947.85 389.43 C 948.70 393.93 949.52 398.44 950.48 402.93 C 939.23 412.80 927.91 422.59 916.72 432.52 C 929.22 429.17 942.02 427.16 954.67 424.49 C 955.30 427.70 955.93 430.91 956.58 434.12 C 939.78 437.38 923.01 440.72 906.21 443.97 C 905.38 439.48 904.51 435.00 903.53 430.55 C 914.81 420.49 926.38 410.77 937.67 400.73 C 925.03 404.06 912.16 406.39 899.32 408.80 C 898.73 405.62 898.15 402.45 897.46 399.30 Z" />
<path fill="#365171" opacity="1.00" d=" M 43.48 436.67 C 60.50 438.10 77.53 439.44 94.55 440.76 C 94.39 444.13 94.11 447.49 93.92 450.86 C 80.37 449.93 66.84 448.79 53.34 447.28 C 66.44 452.93 79.64 458.35 92.77 463.91 C 92.50 467.24 92.28 470.57 91.99 473.90 C 78.08 476.95 64.17 479.97 50.28 483.14 C 63.90 483.60 77.48 484.75 91.06 485.80 C 90.76 489.04 90.49 492.29 90.25 495.54 C 73.19 494.16 56.12 492.84 39.06 491.42 C 39.48 486.49 39.75 481.54 40.32 476.63 C 53.80 473.67 67.26 470.59 80.74 467.61 C 67.90 462.22 55.04 456.88 42.23 451.43 C 42.67 446.51 43.00 441.58 43.48 436.67 Z" />
<path fill="#365171" opacity="1.00" d=" M 925.76 450.84 C 936.63 450.14 947.51 449.44 958.38 448.66 C 958.57 452.25 958.83 455.84 959.07 459.43 C 948.40 460.30 937.70 460.86 927.03 461.63 C 923.46 461.95 919.34 463.13 917.77 466.69 C 916.44 470.18 916.69 474.30 918.22 477.69 C 920.01 481.29 924.38 482.24 928.07 482.00 C 938.86 481.44 949.62 480.56 960.41 479.92 C 960.68 483.51 960.94 487.09 961.22 490.68 C 950.67 491.46 940.12 492.06 929.58 492.83 C 924.49 493.37 918.92 492.58 914.98 489.09 C 910.80 485.66 908.69 480.36 908.07 475.11 C 907.11 468.71 908.03 461.49 912.52 456.55 C 915.84 452.81 920.87 451.11 925.76 450.84 Z" />
<path fill="#365171" opacity="1.00" d=" M 66.42 565.42 C 73.07 562.52 81.63 566.11 84.02 573.01 C 86.55 579.59 83.07 587.86 76.30 590.18 C 69.57 592.90 61.10 589.07 58.96 582.09 C 56.61 575.69 60.01 567.86 66.42 565.42 Z" />
<path fill="#365171" opacity="1.00" d=" M 924.33 565.50 C 931.50 562.16 940.84 566.71 942.51 574.46 C 944.58 581.65 939.35 589.74 931.96 590.83 C 925.17 592.21 917.94 587.41 916.63 580.61 C 915.10 574.58 918.60 567.84 924.33 565.50 Z" />
<path fill="#365171" opacity="1.00" d=" M 889.15 636.93 C 896.42 645.68 903.47 654.61 910.68 663.41 C 911.71 664.82 913.44 665.35 914.99 666.03 C 920.05 668.05 925.05 670.20 930.12 672.20 C 928.78 675.56 927.39 678.89 926.01 682.24 C 919.91 679.87 914.00 677.01 907.82 674.88 C 895.89 675.74 884.00 677.30 872.08 678.33 C 873.51 674.71 875.04 671.13 876.49 667.52 C 884.37 666.79 892.27 666.43 900.14 665.63 C 894.94 659.68 889.77 653.69 884.68 647.64 C 886.21 644.09 887.69 640.51 889.15 636.93 Z" />
<path fill="#365171" opacity="1.00" d=" M 69.60 670.93 C 85.30 664.07 101.01 657.23 116.70 650.35 C 119.73 658.49 124.92 666.05 125.75 674.84 C 127.09 686.10 113.41 693.58 103.72 690.19 C 96.64 687.49 93.41 680.10 90.71 673.60 C 85.12 676.03 79.54 678.48 73.96 680.92 C 72.50 677.58 71.02 674.27 69.60 670.93 M 98.87 670.04 C 100.54 673.71 102.02 678.27 106.13 679.85 C 109.91 680.93 114.83 678.73 115.93 674.79 C 116.55 670.88 114.33 667.36 112.84 663.92 C 108.18 665.97 103.53 668.01 98.87 670.04 Z" />
<path fill="#365171" opacity="1.00" d=" M 121.25 695.22 C 128.77 693.36 136.95 696.30 141.84 702.24 C 146.90 708.39 150.93 716.44 149.34 724.60 C 148.11 731.19 143.33 736.44 137.96 740.12 C 131.34 744.60 123.27 748.00 115.14 746.41 C 107.86 744.99 102.37 739.18 99.09 732.82 C 95.07 725.91 94.36 716.79 98.92 709.97 C 104.06 702.43 112.52 697.44 121.25 695.22 M 122.44 706.63 C 116.81 708.65 111.27 711.83 107.72 716.76 C 103.23 722.95 107.14 732.26 113.73 735.13 C 119.27 737.03 125.07 734.61 129.81 731.77 C 133.76 729.32 137.84 726.19 139.32 721.60 C 140.83 716.29 137.90 710.52 133.55 707.47 C 130.30 705.21 126.04 705.39 122.44 706.63 Z" />
<path fill="#365171" opacity="1.00" d=" M 857.66 705.32 C 859.39 702.14 861.06 698.93 862.79 695.76 C 875.21 702.37 887.65 708.95 900.13 715.45 C 903.39 709.38 906.62 703.28 909.81 697.17 C 912.47 698.49 915.12 699.87 917.75 701.27 C 912.91 710.64 907.89 719.91 903.05 729.27 C 887.89 721.35 872.77 713.34 857.66 705.32 Z" />
<path fill="#365171" opacity="1.00" d=" M 839.99 733.34 C 842.48 729.66 844.91 725.94 847.42 722.27 C 865.11 726.73 882.78 731.24 900.49 735.62 C 898.23 738.83 896.06 742.11 893.88 745.38 C 889.81 744.16 885.74 742.97 881.69 741.71 C 878.16 746.88 874.85 752.20 871.30 757.36 C 874.08 760.62 876.78 763.94 879.48 767.26 C 877.32 770.51 875.16 773.76 872.99 777.00 C 862.02 762.43 850.95 747.92 839.99 733.34 M 865.26 749.99 C 867.72 746.27 870.18 742.55 872.69 738.85 C 865.26 736.72 857.82 734.60 850.45 732.29 C 855.47 738.11 860.30 744.11 865.26 749.99 Z" />
<path fill="#365171" opacity="1.00" d=" M 119.84 764.16 C 133.60 754.05 147.29 743.86 161.04 733.74 C 163.23 736.61 165.39 739.51 167.51 742.45 C 156.18 750.84 144.85 759.23 133.49 767.58 C 137.66 773.13 141.75 778.74 145.87 784.33 C 143.46 786.08 141.07 787.86 138.69 789.67 C 132.37 781.19 126.12 772.67 119.84 764.16 Z" />
<path fill="#365171" opacity="1.00" d=" M 806.15 776.33 C 814.30 766.30 822.54 756.34 830.67 746.28 C 833.01 748.21 835.37 750.13 837.74 752.05 C 834.72 755.60 831.81 759.25 828.87 762.87 C 839.84 771.73 850.67 780.79 861.68 789.61 C 859.36 792.43 857.03 795.24 854.71 798.06 C 843.83 789.10 832.86 780.26 822.01 771.28 C 819.03 774.87 816.09 778.50 813.12 782.09 C 810.78 780.18 808.44 778.27 806.15 776.33 Z" />
<path fill="#365171" opacity="1.00" d=" M 377.27 757.00 C 383.18 756.99 389.09 757.00 395.00 757.00 C 395.00 759.33 395.00 761.66 395.00 764.00 C 391.80 764.00 388.60 763.99 385.40 764.01 C 385.39 765.33 385.39 766.65 385.40 767.99 C 388.40 768.00 391.40 767.99 394.40 768.00 C 394.40 770.33 394.40 772.66 394.40 775.00 C 391.40 774.99 388.40 774.99 385.40 775.01 C 385.39 776.66 385.39 778.32 385.40 779.99 C 388.60 780.00 391.80 779.99 395.00 780.00 C 395.00 782.33 395.00 784.66 395.00 787.00 C 389.09 787.00 383.18 787.00 377.27 787.00 C 377.27 777.00 377.27 767.00 377.27 757.00 Z" />
<path fill="#365171" opacity="1.00" d=" M 402.22 759.12 C 407.55 755.68 414.35 756.86 419.86 759.22 C 419.04 761.38 418.24 763.55 417.45 765.74 C 414.40 764.58 411.20 763.85 407.92 763.89 C 407.64 764.39 407.09 765.39 406.81 765.88 C 409.93 767.99 413.53 769.26 416.68 771.32 C 421.08 774.26 420.80 781.55 416.56 784.52 C 411.40 788.18 404.43 787.46 398.86 785.16 C 398.87 782.64 398.86 780.13 398.86 777.63 C 402.80 779.03 407.34 781.23 411.47 779.26 C 411.59 778.91 411.83 778.21 411.95 777.86 C 409.16 775.07 404.95 774.54 401.92 772.08 C 397.98 768.98 397.93 761.95 402.22 759.12 Z" />
<path fill="#365171" opacity="1.00" d=" M 422.00 757.00 C 429.58 757.00 437.15 756.99 444.73 757.00 C 444.73 759.33 444.73 761.65 444.74 763.99 C 442.30 763.99 439.88 764.01 437.45 764.02 C 437.48 771.68 437.46 779.34 437.46 787.00 C 434.77 786.99 432.08 786.99 429.40 787.00 C 429.40 779.33 429.40 771.67 429.40 764.00 C 426.93 763.99 424.46 763.99 422.00 764.00 C 422.00 761.66 422.00 759.33 422.00 757.00 Z" />
<path fill="#365171" opacity="1.00" d=" M 461.27 757.00 C 464.86 756.99 468.45 756.99 472.05 757.00 C 474.06 764.23 476.32 771.40 478.32 778.64 C 480.46 771.43 482.45 764.19 484.62 757.00 C 488.21 757.00 491.80 757.00 495.40 757.00 C 495.40 767.00 495.40 777.00 495.40 787.00 C 492.89 786.99 490.38 786.99 487.87 787.00 C 487.82 779.66 487.87 772.32 488.25 764.99 C 486.09 772.30 484.04 779.65 482.05 787.01 C 479.44 787.00 476.84 786.98 474.24 786.95 C 472.20 779.61 470.12 772.29 468.03 764.98 C 468.57 772.31 468.37 779.66 468.40 787.00 C 466.02 786.99 463.64 786.99 461.27 787.00 C 461.27 777.00 461.27 767.00 461.27 757.00 Z" />
<path fill="#365171" opacity="1.00" d=" M 501.27 757.00 C 504.86 756.99 508.45 756.99 512.05 757.00 C 514.06 764.23 516.31 771.40 518.32 778.63 C 520.46 771.43 522.46 764.20 524.61 757.00 C 528.20 756.99 531.80 756.99 535.40 757.00 C 535.40 767.00 535.40 777.00 535.40 787.00 C 532.88 786.99 530.38 786.99 527.87 787.00 C 527.82 779.66 527.87 772.33 528.25 765.00 C 526.08 772.31 524.04 779.65 522.05 787.01 C 519.44 787.00 516.85 786.98 514.25 786.96 C 512.20 779.63 510.11 772.31 508.05 764.99 C 508.54 772.32 508.38 779.66 508.40 787.00 C 506.02 786.99 503.64 786.99 501.27 787.00 C 501.27 777.00 501.27 767.00 501.27 757.00 Z" />
<path fill="#365171" opacity="1.00" d=" M 538.61 757.01 C 541.61 757.00 544.61 756.99 547.62 757.01 C 549.44 760.10 551.28 763.19 553.08 766.31 C 554.78 763.18 556.54 760.09 558.30 757.00 C 561.39 756.99 564.47 756.99 567.56 757.00 C 564.36 762.07 561.22 767.19 557.99 772.25 C 561.43 777.15 564.84 782.08 568.26 787.00 C 565.12 786.99 561.98 786.99 558.85 787.00 C 556.93 783.86 554.98 780.74 553.01 777.65 C 551.08 780.77 549.18 783.90 547.23 787.01 C 544.20 786.99 541.17 787.00 538.14 786.97 C 541.37 781.83 544.70 776.75 548.06 771.69 C 544.92 766.78 541.82 761.86 538.61 757.01 Z" />
<path fill="#365171" opacity="1.00" d=" M 569.04 757.00 C 572.05 756.99 575.07 756.99 578.09 757.00 C 580.00 764.33 582.31 771.57 583.62 779.05 C 584.69 771.53 587.19 764.33 589.09 757.00 C 592.09 756.99 595.09 756.99 598.09 757.00 C 594.87 767.01 591.59 777.01 588.30 787.00 C 585.12 787.00 581.95 786.99 578.78 787.00 C 575.54 777.00 572.24 767.02 569.04 757.00 Z" />
<path fill="#365171" opacity="1.00" d=" M 601.27 757.00 C 603.97 757.00 606.68 756.99 609.40 757.00 C 609.40 767.00 609.40 777.00 609.40 787.00 C 606.68 786.99 603.97 786.99 601.27 787.00 C 601.27 777.00 601.27 767.00 601.27 757.00 Z" />
<path fill="#365171" opacity="1.00" d=" M 615.27 757.00 C 617.97 757.00 620.68 756.99 623.40 757.00 C 623.40 767.00 623.40 777.00 623.40 787.00 C 620.68 786.99 617.97 786.99 615.27 787.00 C 615.27 777.00 615.27 767.00 615.27 757.00 Z" />
<path fill="#365171" opacity="1.00" d=" M 143.14 794.92 C 156.31 783.94 169.31 772.78 182.47 761.79 C 184.79 764.56 187.14 767.32 189.47 770.10 C 176.38 781.14 163.29 792.18 150.24 803.27 C 147.85 800.49 145.53 797.68 143.14 794.92 Z" />
<path fill="#365171" opacity="1.00" d=" M 184.36 778.72 C 186.51 776.54 188.73 774.42 191.03 772.38 C 199.84 781.80 208.96 790.92 217.85 800.27 C 215.74 802.39 213.56 804.45 211.37 806.49 C 208.05 803.22 204.86 799.82 201.62 796.47 C 191.59 806.38 181.42 816.14 171.19 825.84 C 168.67 823.31 166.23 820.71 163.80 818.11 C 173.76 808.19 183.93 798.49 194.10 788.80 C 190.94 785.36 187.70 781.99 184.36 778.72 Z" />
<path fill="#365171" opacity="1.00" d=" M 796.90 785.26 C 799.40 782.63 801.90 779.99 804.34 777.30 C 816.80 789.01 829.37 800.59 841.76 812.36 C 839.34 815.00 836.88 817.62 834.44 820.26 C 821.87 808.65 809.45 796.89 796.90 785.26 Z" />
<path fill="#365171" opacity="1.00" d=" M 450.17 779.22 C 451.77 778.86 453.81 778.60 455.05 779.96 C 457.35 781.78 456.50 785.80 453.86 786.87 C 451.84 787.28 449.04 787.07 448.15 784.88 C 447.02 782.86 447.92 779.98 450.17 779.22 Z" />
<path fill="#365171" opacity="1.00" d=" M 220.44 802.50 C 227.98 808.88 235.34 815.46 242.85 821.88 C 240.88 824.10 238.92 826.34 237.01 828.63 C 232.30 824.55 227.61 820.46 222.91 816.37 C 220.44 819.20 217.97 822.04 215.48 824.86 C 219.84 828.68 224.25 832.43 228.60 836.27 C 226.65 838.49 224.72 840.74 222.77 842.96 C 218.34 839.22 214.08 835.30 209.60 831.64 C 206.78 834.98 203.86 838.24 201.00 841.54 C 205.60 845.71 210.41 849.67 215.02 853.85 C 213.07 856.11 211.11 858.36 209.16 860.63 C 201.77 854.14 194.33 847.70 186.89 841.27 C 198.01 828.29 209.37 815.52 220.44 802.50 Z" />
<path fill="#365171" opacity="1.00" d=" M 792.37 829.22 C 797.07 824.98 801.59 820.54 806.34 816.36 C 808.30 818.49 810.26 820.63 812.28 822.72 C 807.73 827.09 803.02 831.28 798.44 835.62 C 796.42 833.47 794.42 831.32 792.37 829.22 Z" />
<path fill="#365171" opacity="1.00" d=" M 752.27 827.27 C 759.09 825.05 766.77 827.14 772.08 831.81 C 777.87 836.92 782.65 843.51 784.58 851.08 C 786.35 857.63 784.35 864.88 779.77 869.83 C 774.46 875.65 767.05 880.27 758.95 880.23 C 750.71 879.90 743.84 874.31 739.21 867.88 C 733.84 860.99 730.37 851.49 733.93 842.98 C 737.38 835.44 744.51 829.89 752.27 827.27 M 752.27 837.22 C 746.60 839.29 741.78 845.32 743.62 851.59 C 745.49 858.28 749.96 864.36 755.73 868.22 C 763.20 873.24 774.18 866.51 774.49 857.92 C 774.03 851.42 770.04 845.81 765.66 841.27 C 762.30 837.77 757.07 835.16 752.27 837.22 Z" />
<path fill="#365171" opacity="1.00" d=" M 226.64 851.68 C 231.05 842.93 238.64 834.48 248.91 833.35 C 260.30 832.07 270.30 840.31 275.54 849.77 C 272.87 851.50 270.19 853.21 267.53 854.95 C 264.73 850.27 261.58 844.87 255.88 843.45 C 250.84 842.04 245.83 844.90 242.45 848.47 C 238.91 852.31 235.86 856.87 234.68 862.03 C 233.82 865.64 235.23 869.55 237.90 872.05 C 241.80 875.81 247.08 877.50 252.10 879.18 C 250.28 881.66 248.47 884.16 246.64 886.64 C 238.66 884.28 230.79 879.83 226.28 872.63 C 222.34 866.27 223.29 858.07 226.64 851.68 Z" />
<path fill="#365171" opacity="1.00" d=" M 257.66 895.12 C 265.92 880.13 274.23 865.16 282.45 850.14 C 286.43 852.36 290.44 854.55 294.43 856.76 C 294.88 871.69 295.04 886.64 295.54 901.58 C 301.04 889.89 307.64 878.78 313.78 867.43 C 316.62 869.01 319.49 870.56 322.35 872.13 C 314.15 887.14 305.80 902.06 297.62 917.08 C 293.55 914.99 289.58 912.71 285.57 910.52 C 285.10 895.35 284.84 880.17 284.71 864.99 C 279.06 876.88 272.50 888.30 266.17 899.84 C 263.34 898.25 260.50 896.67 257.66 895.12 Z" />
<path fill="#365171" opacity="1.00" d=" M 708.36 855.82 C 711.22 854.23 714.10 852.69 716.99 851.14 C 725.14 866.13 733.35 881.09 741.55 896.05 C 737.55 898.29 733.51 900.46 729.50 902.68 C 716.52 894.93 703.73 886.88 690.76 879.13 C 697.86 890.13 703.86 901.77 710.14 913.24 C 707.32 914.80 704.51 916.34 701.69 917.90 C 693.46 902.93 685.25 887.94 677.10 872.93 C 681.08 870.72 685.08 868.55 689.08 866.37 C 701.85 874.07 714.58 881.83 727.37 889.52 C 720.56 878.56 714.65 867.08 708.36 855.82 Z" />
<path fill="#365171" opacity="1.00" d=" M 329.49 875.83 C 332.90 877.12 336.26 878.53 339.57 880.07 C 332.58 895.68 325.75 911.37 318.85 927.03 C 315.57 925.49 312.25 924.04 308.91 922.66 C 315.73 907.03 322.67 891.45 329.49 875.83 Z" />
<path fill="#365171" opacity="1.00" d=" M 659.35 880.30 C 662.70 878.86 666.03 877.38 669.38 875.96 C 676.20 891.66 683.08 907.34 689.92 923.04 C 686.59 924.49 683.27 925.97 679.93 927.40 C 673.06 911.70 666.25 895.98 659.35 880.30 Z" />
<path fill="#365171" opacity="1.00" d=" M 343.53 893.53 C 348.49 888.66 355.99 886.77 362.74 888.22 C 369.39 889.44 375.32 893.17 380.07 897.87 C 377.94 900.25 375.85 902.66 373.75 905.07 C 369.81 901.09 365.01 896.72 358.97 897.24 C 352.53 897.54 348.52 903.70 346.43 909.16 C 344.29 914.76 342.50 922.07 346.87 927.08 C 351.69 932.09 359.22 932.14 365.69 932.59 C 364.63 935.38 363.63 938.20 362.64 941.02 C 353.54 941.26 343.57 938.66 337.44 931.52 C 332.97 926.32 332.58 918.94 333.77 912.48 C 335.29 905.48 338.19 898.49 343.53 893.53 Z" />
<path fill="#365171" opacity="1.00" d=" M 620.14 895.35 C 629.03 892.63 637.66 887.74 647.21 888.29 C 654.90 888.63 660.10 896.80 659.48 904.01 C 659.38 908.05 656.83 911.37 654.29 914.28 C 661.53 919.59 668.68 925.03 675.93 930.33 C 672.11 931.60 668.31 932.92 664.54 934.30 C 658.50 929.48 652.45 924.66 646.48 919.75 C 644.61 920.35 642.74 920.95 640.89 921.58 C 643.00 927.80 645.23 933.99 647.38 940.21 C 643.97 941.48 640.54 942.68 637.09 943.84 C 631.47 927.67 625.78 911.52 620.14 895.35 M 633.34 900.17 C 634.90 904.51 636.42 908.88 637.96 913.25 C 641.68 911.94 646.03 910.88 648.33 907.36 C 650.22 903.59 647.68 897.86 643.15 897.71 C 639.73 897.74 636.52 899.05 633.34 900.17 Z" />
<path fill="#365171" opacity="1.00" d=" M 394.43 901.73 C 401.98 899.50 410.28 901.24 417.11 904.86 C 424.28 908.68 428.00 917.03 427.46 924.95 C 426.94 932.71 424.95 940.79 419.84 946.85 C 415.32 952.32 407.79 954.69 400.87 953.76 C 392.99 952.93 384.68 949.51 380.58 942.36 C 376.22 934.67 377.47 925.26 380.12 917.22 C 382.27 910.30 387.28 903.87 394.43 901.73 M 399.40 910.59 C 394.83 912.12 392.23 916.68 390.85 921.01 C 389.30 925.97 388.24 931.40 389.71 936.50 C 392.35 945.43 406.57 947.70 411.50 939.59 C 415.08 933.81 416.74 926.64 415.91 919.90 C 415.07 912.34 406.09 908.46 399.40 910.59 Z" />
<path fill="#365171" opacity="1.00" d=" M 589.46 901.74 C 595.99 900.28 603.43 900.89 608.77 905.27 C 614.81 909.99 617.48 917.63 618.78 924.92 C 620.03 931.94 619.28 939.86 614.54 945.50 C 608.62 952.44 598.81 954.84 590.02 954.16 C 581.52 953.39 574.83 946.48 572.20 938.69 C 569.35 930.54 567.93 920.95 572.14 913.02 C 575.55 906.59 582.57 903.08 589.46 901.74 M 591.39 910.57 C 587.54 911.23 583.73 913.41 582.10 917.10 C 580.07 921.85 580.81 927.22 582.06 932.08 C 583.19 936.29 584.95 940.78 588.75 943.28 C 592.96 946.03 598.62 945.22 602.80 942.82 C 607.11 940.17 608.42 934.65 607.92 929.91 C 607.39 924.70 606.12 919.35 603.12 914.98 C 600.57 911.26 595.75 909.51 591.39 910.57 Z" />
<path fill="#365171" opacity="1.00" d=" M 524.98 911.81 C 537.81 910.44 550.66 909.12 563.49 907.68 C 563.85 910.67 564.18 913.67 564.57 916.67 C 559.95 917.25 555.31 917.66 550.68 918.16 C 552.05 932.19 553.67 946.19 555.09 960.22 C 551.50 960.56 547.93 960.99 544.36 961.39 C 542.74 947.39 541.34 933.36 539.84 919.34 C 535.22 919.82 530.59 920.31 525.97 920.80 C 525.62 917.79 525.35 914.80 524.98 911.81 Z" />
<path fill="#365171" opacity="1.00" d=" M 451.09 910.18 C 462.08 911.60 474.61 909.75 483.85 917.16 C 492.06 923.58 493.05 935.25 490.77 944.73 C 489.17 951.99 483.89 958.44 476.73 960.79 C 467.28 964.04 457.16 961.83 447.45 961.40 C 448.69 944.33 449.73 927.24 451.09 910.18 M 461.31 919.93 C 460.39 931.03 459.71 942.14 458.94 953.25 C 463.83 953.53 469.19 954.34 473.62 951.69 C 478.16 949.20 479.88 943.76 480.39 938.92 C 480.93 933.66 480.47 927.49 476.33 923.70 C 472.24 920.03 466.44 920.22 461.31 919.93 Z" />
<path fill="#365171" opacity="1.00" d=" M 499.73 912.55 C 503.30 912.58 506.88 912.47 510.44 912.20 C 510.81 929.38 511.22 946.55 511.26 963.73 C 507.69 963.69 504.13 963.69 500.57 963.93 C 500.19 946.80 499.79 929.68 499.73 912.55 Z" />
</g>
</svg>
