<svg xmlns="http://www.w3.org/2000/svg" fill="none" viewBox="66.02 21 344.25 374">
    <path d="M409.176 56.0206L364.681 238.837L286.829 198.964L409.176 56.0206Z" fill="#4986BB"/>
    <path d="M410.261 54.5614L362.099 234.758L331.517 223.646L410.261 54.5614Z" fill="url(#paint0_linear_333_399)"/>
    <path d="M74.0164 185.094L66.0157 325.553L121.53 309.177L74.0164 185.094Z" fill="#4986BB"/>
    <path d="M73.6324 183.854L68.3898 323L89.3181 319.884L73.6324 183.854Z" fill="url(#paint1_linear_333_399)"/>
    <path d="M128.948 23.0206L173.443 205.837L251.295 165.964L128.948 23.0206Z" fill="#4986BB"/>
    <path d="M127.863 21.5614L176.025 201.758L206.607 190.646L127.863 21.5614Z" fill="url(#paint2_linear_333_399)"/>
    <path d="M329.5 83L359.378 127.887H299.622L329.5 83Z" fill="#4986BB"/>
    <rect x="299.782" y="127.151" width="60.1188" height="30.4151" fill="#4986BB"/>
    <path d="M329.5 112.434L359.378 157.321H299.622L329.5 112.434Z" fill="#124877"/>
    <rect x="299.782" y="156.585" width="60.1188" height="30.4151" fill="#124877"/>
    <path d="M329.5 141.868L359.378 186.755H299.622L329.5 141.868Z" fill="#061E33"/>
    <rect x="299.782" y="186.019" width="60.1188" height="30.4151" fill="#061E33"/>
    <path d="M329.5 172.283L359.378 217.17H299.622L329.5 172.283Z" fill="#4986BB"/>
    <rect x="299.782" y="216.434" width="60.1188" height="30.4151" fill="#4986BB"/>
    <path d="M329.5 201.717L359.378 246.604H299.622L329.5 201.717Z" fill="#124877"/>
    <rect x="299.782" y="245.868" width="60.1188" height="30.4151" fill="#124877"/>
    <path d="M329.5 231.151L359.378 276.038H299.622L329.5 231.151Z" fill="#061E33"/>
    <rect x="299.782" y="275.302" width="60.1188" height="30.4151" fill="#061E33"/>
    <path d="M329.5 261.566L359.378 306.453H299.622L329.5 261.566Z" fill="#4986BB"/>
    <rect x="299.782" y="305.717" width="60.1188" height="30.4151" fill="#4986BB"/>
    <path d="M329.5 291L359.378 335.887H299.622L329.5 291Z" fill="#124877"/>
    <rect x="299.782" y="335.151" width="60.1188" height="30.4151" fill="#124877"/>
    <path d="M329.5 320.434L359.378 365.321H299.622L329.5 320.434Z" fill="#061E33"/>
    <rect x="299.782" y="364.585" width="60.1188" height="30.4151" fill="#061E33"/>
    <path d="M111.5 21L141.378 65.8868H81.6221L111.5 21Z" fill="#4986BB"/>
    <rect x="81.7822" y="65.1509" width="60.1188" height="30.4151" fill="#4986BB"/>
    <path d="M111.5 50.4341L141.378 95.3209H81.6221L111.5 50.4341Z" fill="#124877"/>
    <rect x="81.7822" y="94.585" width="60.1188" height="30.4151" fill="#124877"/>
    <path d="M111.5 79.8679L141.378 124.755H81.6221L111.5 79.8679Z" fill="#061E33"/>
    <rect x="81.7822" y="124.019" width="60.1188" height="30.4151" fill="#061E33"/>
    <path d="M111.5 110.283L141.378 155.17H81.6221L111.5 110.283Z" fill="#4986BB"/>
    <rect x="81.7822" y="154.434" width="60.1188" height="30.4151" fill="#4986BB"/>
    <path d="M111.5 139.717L141.378 184.604H81.6221L111.5 139.717Z" fill="#124877"/>
    <rect x="81.7822" y="183.868" width="60.1188" height="30.4151" fill="#124877"/>
    <path d="M111.5 169.151L141.378 214.038H81.6221L111.5 169.151Z" fill="#061E33"/>
    <rect x="81.7822" y="213.302" width="60.1188" height="30.4151" fill="#061E33"/>
    <path d="M111.5 199.566L141.378 244.453H81.6221L111.5 199.566Z" fill="#4986BB"/>
    <rect x="81.7822" y="243.717" width="60.1188" height="30.4151" fill="#4986BB"/>
    <path d="M111.5 229L141.378 273.887H81.6221L111.5 229Z" fill="#124877"/>
    <rect x="81.7822" y="273.151" width="60.1188" height="30.4151" fill="#124877"/>
    <path d="M111.5 258.434L141.378 303.321H81.6221L111.5 258.434Z" fill="#061E33"/>
    <rect x="81.7822" y="302.585" width="60.1188" height="30.4151" fill="#061E33"/>
    <defs>
        <linearGradient id="paint0_linear_333_399" x1="428" y1="17" x2="325.657" y2="287.415" gradientUnits="userSpaceOnUse">
            <stop stop-color="#124877"/>
            <stop offset="0.723958" stop-color="#061E33"/>
        </linearGradient>
        <linearGradient id="paint1_linear_333_399" x1="69.9968" y1="153.596" x2="104.466" y2="363.383" gradientUnits="userSpaceOnUse">
            <stop stop-color="#124877"/>
            <stop offset="0.723958" stop-color="#061E33"/>
        </linearGradient>
        <linearGradient id="paint2_linear_333_399" x1="110.124" y1="-16" x2="212.467" y2="254.415" gradientUnits="userSpaceOnUse">
            <stop stop-color="#124877"/>
            <stop offset="0.723958" stop-color="#061E33"/>
        </linearGradient>
    </defs>
</svg>